<svg width="283" height="74" viewBox="0 0 283 74" fill="none" xmlns="http://www.w3.org/2000/svg">
    <rect x="52.2351" y="21.7646" width="13.0588" height="30.4706" rx="6.52941" fill="white"/>
    <rect y="26.1179" width="13.0588" height="21.7647" rx="6.52941" fill="white"/>
    <rect x="17.4119" y="13.0588" width="13.0588" height="47.8824" rx="6.52941" fill="white"/>
    <rect x="34.8236" width="13.0588" height="74" rx="6.52941" fill="white"/>
    <path d="M101.215 40.9726V23.6853H106.379V40.8888C106.379 42.9903 106.016 44.6559 105.289 45.8855C104.06 47.9647 101.841 49.0043 98.6327 49.0043C95.4245 49.0043 93.2727 48.1659 92.1772 46.4891C91.0817 44.8012 90.534 42.5041 90.534 39.5977V39.0276H95.4133V39.5977C95.458 41.5092 95.6648 42.8562 96.0337 43.6387C96.4138 44.41 97.2186 44.7956 98.4482 44.7956C99.6667 44.7956 100.472 44.3708 100.863 43.5213C101.097 43.0183 101.215 42.1687 101.215 40.9726ZM118.552 43.6051L122.325 30.124H127.406L121.135 48.0988C119.927 51.5641 118.972 53.7103 118.267 54.5375C117.563 55.3759 116.155 55.7951 114.042 55.7951C113.617 55.7951 113.276 55.7895 113.019 55.7783C112.762 55.7783 112.376 55.7616 111.862 55.728V51.905L112.466 51.9386C112.935 51.9609 113.382 51.9442 113.807 51.8883C114.232 51.8324 114.59 51.7038 114.88 51.5026C115.16 51.3126 115.417 50.9158 115.652 50.3121C115.898 49.7085 115.998 49.3396 115.954 49.2055L109.247 30.124H114.562L118.552 43.6051ZM128.445 30.124H133.811L137.617 43.6051L141.507 30.124H146.638L140.048 48.4006H135.001L128.445 30.124ZM160.387 48.4006H149.74V23.6853H160.387C161.919 23.7077 163.193 23.8865 164.21 24.2219C165.943 24.792 167.346 25.8372 168.419 27.3574C169.28 28.587 169.867 29.9172 170.18 31.3481C170.493 32.7789 170.649 34.1427 170.649 35.4393C170.649 38.7258 169.99 41.5092 168.671 43.7896C166.882 46.8636 164.121 48.4006 160.387 48.4006ZM164.227 29.9899C163.434 28.6485 161.863 27.9778 159.516 27.9778H154.754V44.1082H159.516C161.952 44.1082 163.651 42.9065 164.613 40.5031C165.138 39.1841 165.401 37.6135 165.401 35.7915C165.401 33.2763 165.01 31.3425 164.227 29.9899ZM189.814 43.035C189.691 44.1193 189.127 45.2204 188.121 46.3382C186.556 48.1156 184.365 49.0043 181.548 49.0043C179.223 49.0043 177.172 48.2553 175.394 46.7574C173.617 45.2595 172.728 42.8226 172.728 39.4468C172.728 36.2833 173.528 33.8576 175.126 32.1697C176.736 30.4818 178.821 29.6378 181.38 29.6378C182.901 29.6378 184.27 29.9228 185.488 30.4929C186.707 31.063 187.713 31.9629 188.507 33.1925C189.222 34.2768 189.686 35.5344 189.898 36.9652C190.021 37.8036 190.072 39.0108 190.049 40.587H177.541C177.608 42.4202 178.183 43.7057 179.268 44.4435C179.927 44.9018 180.721 45.131 181.649 45.131C182.632 45.131 183.432 44.8515 184.046 44.2926C184.382 43.9908 184.678 43.5716 184.935 43.035H189.814ZM185.086 37.4347C185.008 36.1715 184.622 35.2158 183.929 34.5674C183.247 33.9079 182.398 33.5782 181.38 33.5782C180.274 33.5782 179.413 33.9247 178.798 34.6177C178.195 35.3108 177.814 36.2498 177.658 37.4347H185.086ZM205.878 30.9624C207.309 31.879 208.13 33.4552 208.343 35.6909H203.564C203.497 35.0761 203.323 34.5898 203.044 34.2321C202.519 33.5837 201.624 33.2596 200.361 33.2596C199.322 33.2596 198.578 33.4217 198.131 33.7458C197.695 34.07 197.477 34.4501 197.477 34.886C197.477 35.4338 197.712 35.8306 198.181 36.0765C198.651 36.3336 200.311 36.7752 203.161 37.4011C205.062 37.8483 206.487 38.5246 207.437 39.43C208.376 40.3466 208.846 41.4924 208.846 42.8674C208.846 44.6782 208.169 46.1594 206.817 47.3107C205.475 48.4509 203.396 49.021 200.579 49.021C197.706 49.021 195.582 48.4174 194.207 47.2101C192.844 45.9917 192.162 44.4435 192.162 42.5655H197.008C197.108 43.4151 197.326 44.0187 197.662 44.3764C198.254 45.0136 199.35 45.3322 200.948 45.3322C201.887 45.3322 202.63 45.1925 203.178 44.913C203.737 44.6335 204.016 44.2143 204.016 43.6554C204.016 43.1189 203.793 42.7109 203.346 42.4314C202.899 42.1519 201.239 41.6713 198.366 40.9894C196.298 40.4752 194.839 39.8324 193.99 39.0611C193.14 38.301 192.715 37.2055 192.715 35.7747C192.715 34.0868 193.375 32.6392 194.694 31.4319C196.024 30.2135 197.891 29.6043 200.294 29.6043C202.574 29.6043 204.436 30.057 205.878 30.9624ZM229.168 48.4006H223.4L219.023 40.587L217.045 42.6494V48.4006H212.35V23.7692H217.045V37.0826L222.997 30.2079H228.916L222.528 37.1999L229.168 48.4006ZM239.882 44.9968V48.5683L237.619 48.6521C235.361 48.7304 233.818 48.3392 232.991 47.4784C232.454 46.9307 232.186 46.0867 232.186 44.9465V33.6955H229.637V30.2917H232.186V25.1944H236.914V30.2917H239.882V33.6955H236.914V43.3536C236.914 44.1026 237.009 44.5721 237.199 44.7621C237.389 44.9409 237.971 45.0304 238.943 45.0304C239.089 45.0304 239.239 45.0304 239.396 45.0304C239.564 45.0192 239.726 45.008 239.882 44.9968ZM258.192 32.438C259.735 34.3718 260.506 36.6578 260.506 39.2959C260.506 41.9787 259.735 44.2758 258.192 46.1873C256.65 48.0876 254.308 49.0378 251.167 49.0378C248.026 49.0378 245.684 48.0876 244.141 46.1873C242.599 44.2758 241.827 41.9787 241.827 39.2959C241.827 36.6578 242.599 34.3718 244.141 32.438C245.684 30.5041 248.026 29.5372 251.167 29.5372C254.308 29.5372 256.65 30.5041 258.192 32.438ZM251.15 33.5782C249.753 33.5782 248.674 34.0756 247.914 35.0705C247.165 36.0542 246.79 37.4626 246.79 39.2959C246.79 41.1291 247.165 42.5432 247.914 43.5381C248.674 44.5329 249.753 45.0304 251.15 45.0304C252.547 45.0304 253.62 44.5329 254.369 43.5381C255.118 42.5432 255.493 41.1291 255.493 39.2959C255.493 37.4626 255.118 36.0542 254.369 35.0705C253.62 34.0756 252.547 33.5782 251.15 33.5782ZM279.252 32.0858C280.728 33.662 281.466 35.9759 281.466 39.0276C281.466 42.247 280.739 44.7006 279.286 46.3885C277.844 48.0765 275.983 48.9204 273.702 48.9204C272.249 48.9204 271.042 48.5571 270.08 47.8305C269.555 47.4281 269.041 46.8413 268.538 46.07V55.5939H263.809V30.124H268.387V32.8236C268.901 32.03 269.449 31.404 270.03 30.9457C271.092 30.1296 272.355 29.7216 273.82 29.7216C275.955 29.7216 277.766 30.5097 279.252 32.0858ZM276.536 39.2623C276.536 37.8539 276.212 36.6075 275.563 35.5232C274.926 34.4389 273.887 33.8967 272.445 33.8967C270.712 33.8967 269.522 34.7183 268.873 36.3616C268.538 37.2335 268.37 38.3401 268.37 39.6815C268.37 41.8054 268.935 43.2977 270.064 44.1585C270.734 44.6615 271.528 44.913 272.445 44.913C273.775 44.913 274.787 44.3988 275.48 43.3704C276.184 42.342 276.536 40.9726 276.536 39.2623Z" fill="white"/>
</svg>
