<svg xmlns="http://www.w3.org/2000/svg" viewBox="0 0 1200 630" width="1200" height="630">
  <!-- Definitions -->
  <defs>
    <!-- Gradients -->
    <linearGradient id="bgGradient" x1="0%" y1="0%" x2="100%" y2="100%">
      <stop offset="0%" stop-color="#111827"/>
      <stop offset="100%" stop-color="#030712"/>
    </linearGradient>
    
    <linearGradient id="greenGradient" x1="0%" y1="0%" x2="100%" y2="0%">
      <stop offset="0%" stop-color="#22c55e"/>
      <stop offset="100%" stop-color="#16a34a"/>
    </linearGradient>
    
    <linearGradient id="blueGradient" x1="0%" y1="0%" x2="100%" y2="0%">
      <stop offset="0%" stop-color="#3b82f6"/>
      <stop offset="100%" stop-color="#1d4ed8"/>
    </linearGradient>
    
    <radialGradient id="noiseCenterGlow" cx="50%" cy="50%" r="50%" fx="50%" fy="50%">
      <stop offset="0%" stop-color="#22c55e" stop-opacity="0.4"/>
      <stop offset="100%" stop-color="#22c55e" stop-opacity="0"/>
    </radialGradient>
    
    <!-- Filters -->
    <filter id="softGlow" x="-100%" y="-100%" width="300%" height="300%">
      <feGaussianBlur in="SourceGraphic" stdDeviation="15" result="blur"/>
      <feComposite in="SourceGraphic" in2="blur" operator="over"/>
    </filter>
    
    <filter id="noiseMask" x="-50%" y="-50%" width="200%" height="200%">
      <feTurbulence type="fractalNoise" baseFrequency="0.05" numOctaves="2" seed="1" result="noise"/>
      <feDisplacementMap in="SourceGraphic" in2="noise" scale="10" xChannelSelector="R" yChannelSelector="G"/>
    </filter>
    
    <!-- Patterns -->
    <pattern id="noiseTexture" patternUnits="userSpaceOnUse" width="100" height="100" patternTransform="scale(0.5)">
      <rect width="100" height="100" fill="#000000"/>
      <filter id="noise">
        <feTurbulence baseFrequency="0.4" numOctaves="2" seed="0"/>
        <feColorMatrix values="1 0 0 0 0 0 1 0 0 0 0 0 1 0 0 0 0 0 0.05 0"/>
      </filter>
      <rect width="100" height="100" filter="url(#noise)" opacity="0.1"/>
    </pattern>
    
    <clipPath id="waveClip">
      <rect x="250" y="130" width="700" height="370"/>
    </clipPath>
  </defs>
  
  <!-- Main Background -->
  <rect width="1200" height="630" fill="url(#bgGradient)"/>
  <rect width="1200" height="630" fill="url(#noiseTexture)" opacity="0.4"/>
  
  <!-- Subtle Grid Lines -->
  <g stroke="#22c55e" stroke-opacity="0.04" stroke-width="1">
    <line x1="0" y1="80" x2="1200" y2="80"/>
    <line x1="0" y1="160" x2="1200" y2="160"/>
    <line x1="0" y1="240" x2="1200" y2="240"/>
    <line x1="0" y1="320" x2="1200" y2="320"/>
    <line x1="0" y1="400" x2="1200" y2="400"/>
    <line x1="0" y1="480" x2="1200" y2="480"/>
    <line x1="0" y1="560" x2="1200" y2="560"/>
    
    <line x1="100" y1="0" x2="100" y2="630"/>
    <line x1="300" y1="0" x2="300" y2="630"/>
    <line x1="500" y1="0" x2="500" y2="630"/>
    <line x1="700" y1="0" x2="700" y2="630"/>
    <line x1="900" y1="0" x2="900" y2="630"/>
    <line x1="1100" y1="0" x2="1100" y2="630"/>
  </g>
  
  <!-- Central Visualization Area -->
  <g transform="translate(600, 315)" clip-path="url(#waveClip)">
    <!-- Noise Visualization -->
    <g opacity="0.6">
      <!-- Random Noise Waves (Chaotic Before Processing) -->
      <g transform="translate(-300, -50)" stroke="#ef4444" stroke-width="0.8" fill="none" filter="url(#noiseMask)">
        <path d="M0,0 C20,-30 40,20 60,-15 C80,-50 100,30 120,-20 C140,10 160,-40 180,15 C200,-25 220,35 240,-5 C260,-45 280,25 300,-30 C320,5 340,-35 360,20 C380,-15 400,40 420,-10 C440,-40 460,30 480,0 C500,-20 520,25 540,-5 C560,-30 580,15 600,-25" opacity="0.5"/>
        <path d="M50,20 C70,-10 90,30 110,5 C130,-25 150,15 170,-20 C190,10 210,-30 230,0 C250,-40 270,20 290,-15 C310,5 330,-35 350,10 C370,-20 390,30 410,0 C430,-25 450,15 470,-10 C490,-35 510,25 530,-5 C550,-30 570,10 590,-15" opacity="0.5" transform="translate(0, 30)"/>
        <path d="M20,-10 C40,-40 60,15 80,-20 C100,5 120,-30 140,10 C160,-25 180,20 200,-15 C220,0 240,-35 260,5 C280,-30 300,25 320,-5 C340,-40 360,15 380,-20 C400,10 420,-30 440,0 C460,-25 480,20 500,-10 C520,-35 540,5 560,-15 C580,-40 600,10 620,-25" opacity="0.5" transform="translate(0, -30)"/>
      </g>
      
      <!-- Green Clean Audio Waves (After Processing) -->
      <g transform="translate(100, -50)" stroke="#22c55e" stroke-width="2" stroke-linecap="round" fill="none">
        <path d="M0,0 C20,-10 40,10 60,0 C80,-10 100,10 120,0 C140,-10 160,10 180,0 C200,-10 220,10 240,0 C260,-10 280,10 300,0 C320,-10 340,10 360,0 C380,-10 400,10 420,0 C440,-10 460,10 480,0" opacity="0.9"/>
        <path d="M0,0 C20,-15 40,15 60,0 C80,-15 100,15 120,0 C140,-15 160,15 180,0 C200,-15 220,15 240,0 C260,-15 280,15 300,0 C320,-15 340,15 360,0 C380,-15 400,15 420,0 C440,-15 460,15 480,0" opacity="0.7" transform="translate(0, 30)"/>
        <path d="M0,0 C20,-5 40,5 60,0 C80,-5 100,5 120,0 C140,-5 160,5 180,0 C200,-5 220,5 240,0 C260,-5 280,5 300,0 C320,-5 340,5 360,0 C380,-5 400,5 420,0 C440,-5 460,5 480,0" opacity="0.5" transform="translate(0, -30)"/>
      </g>
    </g>
    
    <!-- AI Neural Network Nodes -->
    <g opacity="0.7">
      <!-- Neural Network Node Groups -->
      <g transform="translate(-150, 0)">
        <!-- Input Layer -->
        <g>
          <circle cx="0" cy="-80" r="10" fill="#ef4444" fill-opacity="0.5"/>
          <circle cx="0" cy="-40" r="10" fill="#ef4444" fill-opacity="0.5"/>
          <circle cx="0" cy="0" r="10" fill="#ef4444" fill-opacity="0.5"/>
          <circle cx="0" cy="40" r="10" fill="#ef4444" fill-opacity="0.5"/>
          <circle cx="0" cy="80" r="10" fill="#ef4444" fill-opacity="0.5"/>
        </g>
        
        <!-- Hidden Layer 1 -->
        <g transform="translate(100, 0)">
          <circle cx="0" cy="-100" r="10" fill="#f97316" fill-opacity="0.5"/>
          <circle cx="0" cy="-50" r="10" fill="#f97316" fill-opacity="0.5"/>
          <circle cx="0" cy="0" r="10" fill="#f97316" fill-opacity="0.5"/>
          <circle cx="0" cy="50" r="10" fill="#f97316" fill-opacity="0.5"/>
          <circle cx="0" cy="100" r="10" fill="#f97316" fill-opacity="0.5"/>
          
          <!-- Connections from input to hidden1 (selective) -->
          <line x1="-100" y1="-80" x2="0" y2="-100" stroke="#64748b" stroke-width="1" stroke-opacity="0.2"/>
          <line x1="-100" y1="-40" x2="0" y2="-50" stroke="#64748b" stroke-width="1" stroke-opacity="0.2"/>
          <line x1="-100" y1="0" x2="0" y2="0" stroke="#64748b" stroke-width="1" stroke-opacity="0.2"/>
          <line x1="-100" y1="40" x2="0" y2="50" stroke="#64748b" stroke-width="1" stroke-opacity="0.2"/>
          <line x1="-100" y1="80" x2="0" y2="100" stroke="#64748b" stroke-width="1" stroke-opacity="0.2"/>
          
          <line x1="-100" y1="-40" x2="0" y2="-100" stroke="#64748b" stroke-width="1" stroke-opacity="0.1"/>
          <line x1="-100" y1="0" x2="0" y2="-50" stroke="#64748b" stroke-width="1" stroke-opacity="0.1"/>
          <line x1="-100" y1="40" x2="0" y2="0" stroke="#64748b" stroke-width="1" stroke-opacity="0.1"/>
          <line x1="-100" y1="80" x2="0" y2="50" stroke="#64748b" stroke-width="1" stroke-opacity="0.1"/>
        </g>
        
        <!-- Hidden Layer 2 -->
        <g transform="translate(200, 0)">
          <circle cx="0" cy="-60" r="10" fill="#3b82f6" fill-opacity="0.5"/>
          <circle cx="0" cy="-20" r="10" fill="#3b82f6" fill-opacity="0.5"/>
          <circle cx="0" cy="20" r="10" fill="#3b82f6" fill-opacity="0.5"/>
          <circle cx="0" cy="60" r="10" fill="#3b82f6" fill-opacity="0.5"/>
          
          <!-- Connections from hidden1 to hidden2 (selective) -->
          <line x1="-100" y1="-100" x2="0" y2="-60" stroke="#64748b" stroke-width="1" stroke-opacity="0.2"/>
          <line x1="-100" y1="-50" x2="0" y2="-20" stroke="#64748b" stroke-width="1" stroke-opacity="0.2"/>
          <line x1="-100" y1="0" x2="0" y2="20" stroke="#64748b" stroke-width="1" stroke-opacity="0.2"/>
          <line x1="-100" y1="50" x2="0" y2="60" stroke="#64748b" stroke-width="1" stroke-opacity="0.2"/>
        </g>
        
        <!-- Output Layer -->
        <g transform="translate(300, 0)">
          <circle cx="0" cy="0" r="12" fill="#22c55e" fill-opacity="0.8"/>
          
          <!-- Connections from hidden2 to output -->
          <line x1="-100" y1="-60" x2="0" y2="0" stroke="#64748b" stroke-width="1" stroke-opacity="0.2"/>
          <line x1="-100" y1="-20" x2="0" y2="0" stroke="#64748b" stroke-width="1" stroke-opacity="0.2"/>
          <line x1="-100" y1="20" x2="0" y2="0" stroke="#64748b" stroke-width="1" stroke-opacity="0.2"/>
          <line x1="-100" y1="60" x2="0" y2="0" stroke="#64748b" stroke-width="1" stroke-opacity="0.2"/>
        </g>
      </g>
    </g>
  </g>
  
  <!-- Center Glow -->
  <circle cx="600" cy="315" r="80" fill="url(#noiseCenterGlow)" filter="url(#softGlow)"/>
  
  <!-- Noise Cancellation Visualization -->
  <g transform="translate(600, 315)">
    <!-- Circular Progress Ring -->
    <circle cx="0" cy="0" r="100" fill="none" stroke="#22c55e" stroke-width="4" stroke-opacity="0.2"/>
    <circle cx="0" cy="0" r="100" fill="none" stroke="#22c55e" stroke-width="4" stroke-opacity="0.8" stroke-dasharray="550 75" transform="rotate(-90)"/>
    
    <!-- Center Icon -->
    <circle cx="0" cy="0" r="70" fill="#1f2937" stroke="#22c55e" stroke-width="2"/>
    
    <!-- Microphone Icon -->
    <g transform="translate(0, 0) scale(1.3)">
      <rect x="-8" y="-20" width="16" height="25" rx="8" fill="#22c55e"/>
      <path d="M-15,5 C-15,15 15,15 15,5" stroke="#22c55e" stroke-width="3" fill="none"/>
      <line x1="0" y1="15" x2="0" y2="25" stroke="#22c55e" stroke-width="3"/>
      <line x1="-10" y1="25" x2="10" y2="25" stroke="#22c55e" stroke-width="3"/>
    </g>
    
    <!-- Noise Cancel Indicators -->
    <g transform="translate(0, 0)">
      <path d="M-140,0 L-115,0" stroke="#ef4444" stroke-width="3" stroke-linecap="round"/>
      <path d="M-140,15 L-115,15" stroke="#ef4444" stroke-width="3" stroke-linecap="round"/>
      <path d="M-140,-15 L-115,-15" stroke="#ef4444" stroke-width="3" stroke-linecap="round"/>
      <path d="M-140,30 L-115,30" stroke="#ef4444" stroke-width="3" stroke-linecap="round"/>
      <path d="M-140,-30 L-115,-30" stroke="#ef4444" stroke-width="3" stroke-linecap="round"/>
      
      <path d="M115,0 L140,0" stroke="#22c55e" stroke-width="3" stroke-linecap="round"/>
      <path d="M115,15 L140,15" stroke="#22c55e" stroke-width="3" stroke-linecap="round" stroke-dasharray="20 5"/>
      <path d="M115,-15 L140,-15" stroke="#22c55e" stroke-width="3" stroke-linecap="round" stroke-dasharray="20 5"/>
      <path d="M115,30 L140,30" stroke="#22c55e" stroke-width="3" stroke-linecap="round" stroke-dasharray="25 10"/>
      <path d="M115,-30 L140,-30" stroke="#22c55e" stroke-width="3" stroke-linecap="round" stroke-dasharray="25 10"/>
    </g>
  </g>
  
  <!-- Text Overlay -->
  <g transform="translate(600, 120)">
    <text x="0" y="0" font-family="Inter, Helvetica, Arial, sans-serif" font-size="42" font-weight="bold" fill="#ffffff" text-anchor="middle">AI Noise Suppression</text>
    <rect x="-60" y="20" width="120" height="4" rx="2" fill="url(#greenGradient)"/>
  </g>
  
  <!-- Subtle Text -->
  <g transform="translate(600, 520)">
    <text x="0" y="0" font-family="Inter, Helvetica, Arial, sans-serif" font-size="24" font-weight="semibold" fill="#ffffff" text-anchor="middle">Crystal clear audio, everywhere</text>
    <text x="0" y="35" font-family="Inter, Helvetica, Arial, sans-serif" font-size="16" fill="#9ca3af" text-anchor="middle">Advanced neural networks eliminate background noise in real-time</text>
  </g>
  
  <!-- Corner Elements -->
  <path d="M40,40 h80 v-15 h-80 v80 h-15 v-80 h15 v15" stroke="#22c55e" stroke-width="2" fill="none" stroke-opacity="0.3"/>
  <path d="M1160,590 h-80 v15 h80 v-80 h15 v80 h-15 v-15" stroke="#22c55e" stroke-width="2" fill="none" stroke-opacity="0.3"/>
  
  <!-- JyvDesktop Branding -->
  <g transform="translate(80, 580)">
    <circle cx="0" cy="0" r="20" fill="#22c55e" fill-opacity="0.2"/>
    <path d="M-5,0 L5,0 M0,-5 L0,5" stroke="#22c55e" stroke-width="2"/>
    <text x="30" y="5" font-family="Inter, Helvetica, Arial, sans-serif" font-size="16" font-weight="bold" fill="#ffffff">JyvDesktop</text>
  </g>
</svg>