<svg width="346" height="367" viewBox="0 0 346 367" fill="none" xmlns="http://www.w3.org/2000/svg">
<path d="M173 321C255.843 321 323 253.843 323 171C323 88.1573 255.843 21 173 21C90.1573 21 23 88.1573 23 171C23 253.843 90.1573 321 173 321Z" fill="#0A0A0A" stroke="#22C55E" stroke-width="2"/>
<path d="M173 341C266.888 341 343 264.888 343 171C343 77.1116 266.888 1 173 1C79.1116 1 3 77.1116 3 171C3 264.888 79.1116 341 173 341Z" stroke="#22C55E" stroke-opacity="0.3"/>
<path d="M213 121H133C127.477 121 123 125.477 123 131V231C123 236.523 127.477 241 133 241H213C218.523 241 223 236.523 223 231V131C223 125.477 218.523 121 213 121Z" fill="#0A0A0A" stroke="#22C55E" stroke-width="3"/>
<path d="M153 121V91C153 61 193 61 193 91V121" stroke="#22C55E" stroke-width="6" stroke-linecap="round"/>
<path d="M173 186C184.046 186 193 177.046 193 166C193 154.954 184.046 146 173 146C161.954 146 153 154.954 153 166C153 177.046 161.954 186 173 186Z" stroke="#22C55E" stroke-width="3"/>
<path d="M176 166H170C168.895 166 168 166.895 168 168V199C168 200.105 168.895 201 170 201H176C177.105 201 178 200.105 178 199V168C178 166.895 177.105 166 176 166Z" fill="#22C55E"/>
<path d="M21.3029 121V112.273H24.2518C24.9364 112.273 25.4961 112.396 25.9308 112.643C26.3683 112.888 26.6921 113.219 26.9023 113.636C27.1126 114.054 27.2177 114.52 27.2177 115.034C27.2177 115.548 27.1126 116.016 26.9023 116.436C26.695 116.857 26.3739 117.192 25.9393 117.442C25.5046 117.689 24.9478 117.812 24.2688 117.812H22.1552V116.875H24.2347C24.7035 116.875 25.0799 116.794 25.364 116.632C25.6481 116.47 25.854 116.251 25.9819 115.976C26.1126 115.697 26.1779 115.384 26.1779 115.034C26.1779 114.685 26.1126 114.372 25.9819 114.097C25.854 113.821 25.6467 113.605 25.3597 113.449C25.0728 113.29 24.6921 113.21 24.2177 113.21H22.3597V121H21.3029ZM28.9201 121V112.273H29.9769V120.062H34.0337V121H28.9201ZM36.5788 121H35.4709L38.6754 112.273H39.7663L42.9709 121H41.8629L39.255 113.653H39.1868L36.5788 121ZM36.9879 117.591H41.4538V118.528H36.9879V117.591ZM45.3871 112.273V121H44.3303V112.273H45.3871ZM54.4265 112.273V121H53.4038L48.6481 114.148H48.5629V121H47.506V112.273H48.5288L53.3015 119.142H53.3867V112.273H54.4265ZM56.0639 113.21V112.273H62.6094V113.21H59.8651V121H58.8082V113.21H56.0639ZM64.2404 121V112.273H69.5075V113.21H65.2972V116.159H69.2347V117.097H65.2972V120.062H69.5756V121H64.2404ZM71.9237 112.273L74.1737 115.903H74.2418L76.4918 112.273H77.7362L74.9918 116.636L77.7362 121H76.4918L74.2418 117.438H74.1737L71.9237 121H70.6793L73.4918 116.636L70.6793 112.273H71.9237ZM78.6342 113.21V112.273H85.1797V113.21H82.4354V121H81.3786V113.21H78.6342Z" fill="white"/>
<path d="M21.8438 145.159C20.9877 145.159 20.2585 144.926 19.6562 144.46C19.054 143.991 18.5938 143.311 18.2756 142.42C17.9574 141.527 17.7983 140.447 17.7983 139.182C17.7983 137.924 17.9574 136.85 18.2756 135.96C18.5975 135.066 19.0597 134.384 19.6619 133.915C20.268 133.441 20.9953 133.205 21.8438 133.205C22.6922 133.205 23.4176 133.441 24.0199 133.915C24.6259 134.384 25.0881 135.066 25.4062 135.96C25.7282 136.85 25.8892 137.924 25.8892 139.182C25.8892 140.447 25.7301 141.527 25.4119 142.42C25.0938 143.311 24.6335 143.991 24.0312 144.46C23.429 144.926 22.6998 145.159 21.8438 145.159ZM21.8438 143.909C22.6922 143.909 23.3513 143.5 23.821 142.682C24.2907 141.864 24.5256 140.697 24.5256 139.182C24.5256 138.174 24.4176 137.316 24.2017 136.608C23.9896 135.9 23.6828 135.36 23.2812 134.989C22.8835 134.617 22.4044 134.432 21.8438 134.432C21.0028 134.432 20.3456 134.847 19.8722 135.676C19.3987 136.502 19.1619 137.67 19.1619 139.182C19.1619 140.189 19.268 141.045 19.4801 141.75C19.6922 142.455 19.9972 142.991 20.3949 143.358C20.7964 143.725 21.2794 143.909 21.8438 143.909ZM32.1392 133.364V145H30.7301V134.841H30.6619L27.821 136.727V135.295L30.7301 133.364H32.1392ZM39.2812 145.159C38.4252 145.159 37.696 144.926 37.0938 144.46C36.4915 143.991 36.0313 143.311 35.7131 142.42C35.3949 141.527 35.2358 140.447 35.2358 139.182C35.2358 137.924 35.3949 136.85 35.7131 135.96C36.035 135.066 36.4972 134.384 37.0994 133.915C37.7055 133.441 38.4328 133.205 39.2812 133.205C40.1297 133.205 40.8551 133.441 41.4574 133.915C42.0634 134.384 42.5256 135.066 42.8438 135.96C43.1657 136.85 43.3267 137.924 43.3267 139.182C43.3267 140.447 43.1676 141.527 42.8494 142.42C42.5312 143.311 42.071 143.991 41.4688 144.46C40.8665 144.926 40.1373 145.159 39.2812 145.159ZM39.2812 143.909C40.1297 143.909 40.7888 143.5 41.2585 142.682C41.7282 141.864 41.9631 140.697 41.9631 139.182C41.9631 138.174 41.8551 137.316 41.6392 136.608C41.4271 135.9 41.1203 135.36 40.7188 134.989C40.321 134.617 39.8419 134.432 39.2812 134.432C38.4403 134.432 37.7831 134.847 37.3097 135.676C36.8362 136.502 36.5994 137.67 36.5994 139.182C36.5994 140.189 36.7055 141.045 36.9176 141.75C37.1297 142.455 37.4347 142.991 37.8324 143.358C38.2339 143.725 38.7169 143.909 39.2812 143.909ZM49.2812 145.159C48.4252 145.159 47.696 144.926 47.0938 144.46C46.4915 143.991 46.0313 143.311 45.7131 142.42C45.3949 141.527 45.2358 140.447 45.2358 139.182C45.2358 137.924 45.3949 136.85 45.7131 135.96C46.035 135.066 46.4972 134.384 47.0994 133.915C47.7055 133.441 48.4328 133.205 49.2812 133.205C50.1297 133.205 50.8551 133.441 51.4574 133.915C52.0634 134.384 52.5256 135.066 52.8438 135.96C53.1657 136.85 53.3267 137.924 53.3267 139.182C53.3267 140.447 53.1676 141.527 52.8494 142.42C52.5312 143.311 52.071 143.991 51.4688 144.46C50.8665 144.926 50.1373 145.159 49.2812 145.159ZM49.2812 143.909C50.1297 143.909 50.7888 143.5 51.2585 142.682C51.7282 141.864 51.9631 140.697 51.9631 139.182C51.9631 138.174 51.8551 137.316 51.6392 136.608C51.4271 135.9 51.1203 135.36 50.7188 134.989C50.321 134.617 49.8419 134.432 49.2812 134.432C48.4403 134.432 47.7831 134.847 47.3097 135.676C46.8362 136.502 46.5994 137.67 46.5994 139.182C46.5994 140.189 46.7055 141.045 46.9176 141.75C47.1297 142.455 47.4347 142.991 47.8324 143.358C48.2339 143.725 48.7169 143.909 49.2812 143.909ZM59.5767 133.364V145H58.1676V134.841H58.0994L55.2585 136.727V135.295L58.1676 133.364H59.5767ZM66.7188 145.159C65.8627 145.159 65.1335 144.926 64.5312 144.46C63.929 143.991 63.4688 143.311 63.1506 142.42C62.8324 141.527 62.6733 140.447 62.6733 139.182C62.6733 137.924 62.8324 136.85 63.1506 135.96C63.4725 135.066 63.9347 134.384 64.5369 133.915C65.143 133.441 65.8703 133.205 66.7188 133.205C67.5672 133.205 68.2926 133.441 68.8949 133.915C69.5009 134.384 69.9631 135.066 70.2812 135.96C70.6032 136.85 70.7642 137.924 70.7642 139.182C70.7642 140.447 70.6051 141.527 70.2869 142.42C69.9688 143.311 69.5085 143.991 68.9062 144.46C68.304 144.926 67.5748 145.159 66.7188 145.159ZM66.7188 143.909C67.5672 143.909 68.2263 143.5 68.696 142.682C69.1657 141.864 69.4006 140.697 69.4006 139.182C69.4006 138.174 69.2926 137.316 69.0767 136.608C68.8646 135.9 68.5578 135.36 68.1562 134.989C67.7585 134.617 67.2794 134.432 66.7188 134.432C65.8778 134.432 65.2206 134.847 64.7472 135.676C64.2737 136.502 64.0369 137.67 64.0369 139.182C64.0369 140.189 64.143 141.045 64.3551 141.75C64.5672 142.455 64.8722 142.991 65.2699 143.358C65.6714 143.725 66.1544 143.909 66.7188 143.909ZM77.0142 133.364V145H75.6051V134.841H75.5369L72.696 136.727V135.295L75.6051 133.364H77.0142ZM84.1562 145.159C83.3002 145.159 82.571 144.926 81.9688 144.46C81.3665 143.991 80.9063 143.311 80.5881 142.42C80.2699 141.527 80.1108 140.447 80.1108 139.182C80.1108 137.924 80.2699 136.85 80.5881 135.96C80.91 135.066 81.3722 134.384 81.9744 133.915C82.5805 133.441 83.3078 133.205 84.1562 133.205C85.0047 133.205 85.7301 133.441 86.3324 133.915C86.9384 134.384 87.4006 135.066 87.7188 135.96C88.0407 136.85 88.2017 137.924 88.2017 139.182C88.2017 140.447 88.0426 141.527 87.7244 142.42C87.4062 143.311 86.946 143.991 86.3438 144.46C85.7415 144.926 85.0123 145.159 84.1562 145.159ZM84.1562 143.909C85.0047 143.909 85.6638 143.5 86.1335 142.682C86.6032 141.864 86.8381 140.697 86.8381 139.182C86.8381 138.174 86.7301 137.316 86.5142 136.608C86.3021 135.9 85.9953 135.36 85.5938 134.989C85.196 134.617 84.7169 134.432 84.1562 134.432C83.3153 134.432 82.6581 134.847 82.1847 135.676C81.7112 136.502 81.4744 137.67 81.4744 139.182C81.4744 140.189 81.5805 141.045 81.7926 141.75C82.0047 142.455 82.3097 142.991 82.7074 143.358C83.1089 143.725 83.5919 143.909 84.1562 143.909Z" fill="white"/>
<path d="M24.4062 170.159C23.5502 170.159 22.821 169.926 22.2188 169.46C21.6165 168.991 21.1563 168.311 20.8381 167.42C20.5199 166.527 20.3608 165.447 20.3608 164.182C20.3608 162.924 20.5199 161.85 20.8381 160.96C21.16 160.066 21.6222 159.384 22.2244 158.915C22.8305 158.441 23.5578 158.205 24.4062 158.205C25.2547 158.205 25.9801 158.441 26.5824 158.915C27.1884 159.384 27.6506 160.066 27.9688 160.96C28.2907 161.85 28.4517 162.924 28.4517 164.182C28.4517 165.447 28.2926 166.527 27.9744 167.42C27.6562 168.311 27.196 168.991 26.5938 169.46C25.9915 169.926 25.2623 170.159 24.4062 170.159ZM24.4062 168.909C25.2547 168.909 25.9138 168.5 26.3835 167.682C26.8532 166.864 27.0881 165.697 27.0881 164.182C27.0881 163.174 26.9801 162.316 26.7642 161.608C26.5521 160.9 26.2453 160.36 25.8438 159.989C25.446 159.617 24.9669 159.432 24.4062 159.432C23.5653 159.432 22.9081 159.847 22.4347 160.676C21.9612 161.502 21.7244 162.67 21.7244 164.182C21.7244 165.189 21.8305 166.045 22.0426 166.75C22.2547 167.455 22.5597 167.991 22.9574 168.358C23.3589 168.725 23.8419 168.909 24.4062 168.909ZM34.7017 158.364V170H33.2926V159.841H33.2244L30.3835 161.727V160.295L33.2926 158.364H34.7017ZM42.1392 158.364V170H40.7301V159.841H40.6619L37.821 161.727V160.295L40.7301 158.364H42.1392ZM49.5767 158.364V170H48.1676V159.841H48.0994L45.2585 161.727V160.295L48.1676 158.364H49.5767ZM57.0142 158.364V170H55.6051V159.841H55.5369L52.696 161.727V160.295L55.6051 158.364H57.0142ZM64.1562 170.159C63.3002 170.159 62.571 169.926 61.9688 169.46C61.3665 168.991 60.9063 168.311 60.5881 167.42C60.2699 166.527 60.1108 165.447 60.1108 164.182C60.1108 162.924 60.2699 161.85 60.5881 160.96C60.91 160.066 61.3722 159.384 61.9744 158.915C62.5805 158.441 63.3078 158.205 64.1562 158.205C65.0047 158.205 65.7301 158.441 66.3324 158.915C66.9384 159.384 67.4006 160.066 67.7188 160.96C68.0407 161.85 68.2017 162.924 68.2017 164.182C68.2017 165.447 68.0426 166.527 67.7244 167.42C67.4062 168.311 66.946 168.991 66.3438 169.46C65.7415 169.926 65.0123 170.159 64.1562 170.159ZM64.1562 168.909C65.0047 168.909 65.6638 168.5 66.1335 167.682C66.6032 166.864 66.8381 165.697 66.8381 164.182C66.8381 163.174 66.7301 162.316 66.5142 161.608C66.3021 160.9 65.9953 160.36 65.5938 159.989C65.196 159.617 64.7169 159.432 64.1562 159.432C63.3153 159.432 62.6581 159.847 62.1847 160.676C61.7112 161.502 61.4744 162.67 61.4744 164.182C61.4744 165.189 61.5805 166.045 61.7926 166.75C62.0047 167.455 62.3097 167.991 62.7074 168.358C63.1089 168.725 63.5919 168.909 64.1562 168.909ZM74.1562 170.159C73.3002 170.159 72.571 169.926 71.9688 169.46C71.3665 168.991 70.9063 168.311 70.5881 167.42C70.2699 166.527 70.1108 165.447 70.1108 164.182C70.1108 162.924 70.2699 161.85 70.5881 160.96C70.91 160.066 71.3722 159.384 71.9744 158.915C72.5805 158.441 73.3078 158.205 74.1562 158.205C75.0047 158.205 75.7301 158.441 76.3324 158.915C76.9384 159.384 77.4006 160.066 77.7188 160.96C78.0407 161.85 78.2017 162.924 78.2017 164.182C78.2017 165.447 78.0426 166.527 77.7244 167.42C77.4062 168.311 76.946 168.991 76.3438 169.46C75.7415 169.926 75.0123 170.159 74.1562 170.159ZM74.1562 168.909C75.0047 168.909 75.6638 168.5 76.1335 167.682C76.6032 166.864 76.8381 165.697 76.8381 164.182C76.8381 163.174 76.7301 162.316 76.5142 161.608C76.3021 160.9 75.9953 160.36 75.5938 159.989C75.196 159.617 74.7169 159.432 74.1562 159.432C73.3153 159.432 72.6581 159.847 72.1847 160.676C71.7112 161.502 71.4744 162.67 71.4744 164.182C71.4744 165.189 71.5805 166.045 71.7926 166.75C72.0047 167.455 72.3097 167.991 72.7074 168.358C73.1089 168.725 73.5919 168.909 74.1562 168.909ZM84.4517 158.364V170H83.0426V159.841H82.9744L80.1335 161.727V160.295L83.0426 158.364H84.4517Z" fill="white"/>
<path d="M24.4062 195.159C23.5502 195.159 22.821 194.926 22.2188 194.46C21.6165 193.991 21.1563 193.311 20.8381 192.42C20.5199 191.527 20.3608 190.447 20.3608 189.182C20.3608 187.924 20.5199 186.85 20.8381 185.96C21.16 185.066 21.6222 184.384 22.2244 183.915C22.8305 183.441 23.5578 183.205 24.4062 183.205C25.2547 183.205 25.9801 183.441 26.5824 183.915C27.1884 184.384 27.6506 185.066 27.9688 185.96C28.2907 186.85 28.4517 187.924 28.4517 189.182C28.4517 190.447 28.2926 191.527 27.9744 192.42C27.6562 193.311 27.196 193.991 26.5938 194.46C25.9915 194.926 25.2623 195.159 24.4062 195.159ZM24.4062 193.909C25.2547 193.909 25.9138 193.5 26.3835 192.682C26.8532 191.864 27.0881 190.697 27.0881 189.182C27.0881 188.174 26.9801 187.316 26.7642 186.608C26.5521 185.9 26.2453 185.36 25.8438 184.989C25.446 184.617 24.9669 184.432 24.4062 184.432C23.5653 184.432 22.9081 184.847 22.4347 185.676C21.9612 186.502 21.7244 187.67 21.7244 189.182C21.7244 190.189 21.8305 191.045 22.0426 191.75C22.2547 192.455 22.5597 192.991 22.9574 193.358C23.3589 193.725 23.8419 193.909 24.4062 193.909ZM34.7017 183.364V195H33.2926V184.841H33.2244L30.3835 186.727V185.295L33.2926 183.364H34.7017ZM42.1392 183.364V195H40.7301V184.841H40.6619L37.821 186.727V185.295L40.7301 183.364H42.1392ZM49.5767 183.364V195H48.1676V184.841H48.0994L45.2585 186.727V185.295L48.1676 183.364H49.5767ZM56.7188 195.159C55.8627 195.159 55.1335 194.926 54.5312 194.46C53.929 193.991 53.4688 193.311 53.1506 192.42C52.8324 191.527 52.6733 190.447 52.6733 189.182C52.6733 187.924 52.8324 186.85 53.1506 185.96C53.4725 185.066 53.9347 184.384 54.5369 183.915C55.143 183.441 55.8703 183.205 56.7188 183.205C57.5672 183.205 58.2926 183.441 58.8949 183.915C59.5009 184.384 59.9631 185.066 60.2812 185.96C60.6032 186.85 60.7642 187.924 60.7642 189.182C60.7642 190.447 60.6051 191.527 60.2869 192.42C59.9688 193.311 59.5085 193.991 58.9062 194.46C58.304 194.926 57.5748 195.159 56.7188 195.159ZM56.7188 193.909C57.5672 193.909 58.2263 193.5 58.696 192.682C59.1657 191.864 59.4006 190.697 59.4006 189.182C59.4006 188.174 59.2926 187.316 59.0767 186.608C58.8646 185.9 58.5578 185.36 58.1562 184.989C57.7585 184.617 57.2794 184.432 56.7188 184.432C55.8778 184.432 55.2206 184.847 54.7472 185.676C54.2737 186.502 54.0369 187.67 54.0369 189.182C54.0369 190.189 54.143 191.045 54.3551 191.75C54.5672 192.455 54.8722 192.991 55.2699 193.358C55.6714 193.725 56.1544 193.909 56.7188 193.909ZM67.0142 183.364V195H65.6051V184.841H65.5369L62.696 186.727V185.295L65.6051 183.364H67.0142ZM74.4517 183.364V195H73.0426V184.841H72.9744L70.1335 186.727V185.295L73.0426 183.364H74.4517ZM81.5938 195.159C80.7377 195.159 80.0085 194.926 79.4062 194.46C78.804 193.991 78.3438 193.311 78.0256 192.42C77.7074 191.527 77.5483 190.447 77.5483 189.182C77.5483 187.924 77.7074 186.85 78.0256 185.96C78.3475 185.066 78.8097 184.384 79.4119 183.915C80.018 183.441 80.7453 183.205 81.5938 183.205C82.4422 183.205 83.1676 183.441 83.7699 183.915C84.3759 184.384 84.8381 185.066 85.1562 185.96C85.4782 186.85 85.6392 187.924 85.6392 189.182C85.6392 190.447 85.4801 191.527 85.1619 192.42C84.8438 193.311 84.3835 193.991 83.7812 194.46C83.179 194.926 82.4498 195.159 81.5938 195.159ZM81.5938 193.909C82.4422 193.909 83.1013 193.5 83.571 192.682C84.0407 191.864 84.2756 190.697 84.2756 189.182C84.2756 188.174 84.1676 187.316 83.9517 186.608C83.7396 185.9 83.4328 185.36 83.0312 184.989C82.6335 184.617 82.1544 184.432 81.5938 184.432C80.7528 184.432 80.0956 184.847 79.6222 185.676C79.1487 186.502 78.9119 187.67 78.9119 189.182C78.9119 190.189 79.018 191.045 79.2301 191.75C79.4422 192.455 79.7472 192.991 80.1449 193.358C80.5464 193.725 81.0294 193.909 81.5938 193.909Z" fill="white"/>
<path d="M20.5625 220.159C19.7064 220.159 18.9773 219.926 18.375 219.46C17.7727 218.991 17.3125 218.311 16.9943 217.42C16.6761 216.527 16.517 215.447 16.517 214.182C16.517 212.924 16.6761 211.85 16.9943 210.96C17.3163 210.066 17.7784 209.384 18.3807 208.915C18.9867 208.441 19.714 208.205 20.5625 208.205C21.411 208.205 22.1364 208.441 22.7386 208.915C23.3447 209.384 23.8068 210.066 24.125 210.96C24.447 211.85 24.608 212.924 24.608 214.182C24.608 215.447 24.4489 216.527 24.1307 217.42C23.8125 218.311 23.3523 218.991 22.75 219.46C22.1477 219.926 21.4186 220.159 20.5625 220.159ZM20.5625 218.909C21.411 218.909 22.0701 218.5 22.5398 217.682C23.0095 216.864 23.2443 215.697 23.2443 214.182C23.2443 213.174 23.1364 212.316 22.9205 211.608C22.7083 210.9 22.4015 210.36 22 209.989C21.6023 209.617 21.1231 209.432 20.5625 209.432C19.7216 209.432 19.0644 209.847 18.5909 210.676C18.1174 211.502 17.8807 212.67 17.8807 214.182C17.8807 215.189 17.9867 216.045 18.1989 216.75C18.411 217.455 18.7159 217.991 19.1136 218.358C19.5152 218.725 19.9981 218.909 20.5625 218.909ZM30.858 208.364V220H29.4489V209.841H29.3807L26.5398 211.727V210.295L29.4489 208.364H30.858ZM38 220.159C37.1439 220.159 36.4148 219.926 35.8125 219.46C35.2102 218.991 34.75 218.311 34.4318 217.42C34.1136 216.527 33.9545 215.447 33.9545 214.182C33.9545 212.924 34.1136 211.85 34.4318 210.96C34.7538 210.066 35.2159 209.384 35.8182 208.915C36.4242 208.441 37.1515 208.205 38 208.205C38.8485 208.205 39.5739 208.441 40.1761 208.915C40.7822 209.384 41.2443 210.066 41.5625 210.96C41.8845 211.85 42.0455 212.924 42.0455 214.182C42.0455 215.447 41.8864 216.527 41.5682 217.42C41.25 218.311 40.7898 218.991 40.1875 219.46C39.5852 219.926 38.8561 220.159 38 220.159ZM38 218.909C38.8485 218.909 39.5076 218.5 39.9773 217.682C40.447 216.864 40.6818 215.697 40.6818 214.182C40.6818 213.174 40.5739 212.316 40.358 211.608C40.1458 210.9 39.839 210.36 39.4375 209.989C39.0398 209.617 38.5606 209.432 38 209.432C37.1591 209.432 36.5019 209.847 36.0284 210.676C35.5549 211.502 35.3182 212.67 35.3182 214.182C35.3182 215.189 35.4242 216.045 35.6364 216.75C35.8485 217.455 36.1534 217.991 36.5511 218.358C36.9527 218.725 37.4356 218.909 38 218.909ZM48 220.159C47.1439 220.159 46.4148 219.926 45.8125 219.46C45.2102 218.991 44.75 218.311 44.4318 217.42C44.1136 216.527 43.9545 215.447 43.9545 214.182C43.9545 212.924 44.1136 211.85 44.4318 210.96C44.7538 210.066 45.2159 209.384 45.8182 208.915C46.4242 208.441 47.1515 208.205 48 208.205C48.8485 208.205 49.5739 208.441 50.1761 208.915C50.7822 209.384 51.2443 210.066 51.5625 210.96C51.8845 211.85 52.0455 212.924 52.0455 214.182C52.0455 215.447 51.8864 216.527 51.5682 217.42C51.25 218.311 50.7898 218.991 50.1875 219.46C49.5852 219.926 48.8561 220.159 48 220.159ZM48 218.909C48.8485 218.909 49.5076 218.5 49.9773 217.682C50.447 216.864 50.6818 215.697 50.6818 214.182C50.6818 213.174 50.5739 212.316 50.358 211.608C50.1458 210.9 49.839 210.36 49.4375 209.989C49.0398 209.617 48.5606 209.432 48 209.432C47.1591 209.432 46.5019 209.847 46.0284 210.676C45.5549 211.502 45.3182 212.67 45.3182 214.182C45.3182 215.189 45.4242 216.045 45.6364 216.75C45.8485 217.455 46.1534 217.991 46.5511 218.358C46.9527 218.725 47.4356 218.909 48 218.909ZM58 220.159C57.1439 220.159 56.4148 219.926 55.8125 219.46C55.2102 218.991 54.75 218.311 54.4318 217.42C54.1136 216.527 53.9545 215.447 53.9545 214.182C53.9545 212.924 54.1136 211.85 54.4318 210.96C54.7538 210.066 55.2159 209.384 55.8182 208.915C56.4242 208.441 57.1515 208.205 58 208.205C58.8485 208.205 59.5739 208.441 60.1761 208.915C60.7822 209.384 61.2443 210.066 61.5625 210.96C61.8845 211.85 62.0455 212.924 62.0455 214.182C62.0455 215.447 61.8864 216.527 61.5682 217.42C61.25 218.311 60.7898 218.991 60.1875 219.46C59.5852 219.926 58.8561 220.159 58 220.159ZM58 218.909C58.8485 218.909 59.5076 218.5 59.9773 217.682C60.447 216.864 60.6818 215.697 60.6818 214.182C60.6818 213.174 60.5739 212.316 60.358 211.608C60.1458 210.9 59.839 210.36 59.4375 209.989C59.0398 209.617 58.5606 209.432 58 209.432C57.1591 209.432 56.5019 209.847 56.0284 210.676C55.5549 211.502 55.3182 212.67 55.3182 214.182C55.3182 215.189 55.4242 216.045 55.6364 216.75C55.8485 217.455 56.1534 217.991 56.5511 218.358C56.9527 218.725 57.4356 218.909 58 218.909ZM68.2955 208.364V220H66.8864V209.841H66.8182L63.9773 211.727V210.295L66.8864 208.364H68.2955ZM75.4375 220.159C74.5814 220.159 73.8523 219.926 73.25 219.46C72.6477 218.991 72.1875 218.311 71.8693 217.42C71.5511 216.527 71.392 215.447 71.392 214.182C71.392 212.924 71.5511 211.85 71.8693 210.96C72.1913 210.066 72.6534 209.384 73.2557 208.915C73.8617 208.441 74.589 208.205 75.4375 208.205C76.286 208.205 77.0114 208.441 77.6136 208.915C78.2197 209.384 78.6818 210.066 79 210.96C79.322 211.85 79.483 212.924 79.483 214.182C79.483 215.447 79.3239 216.527 79.0057 217.42C78.6875 218.311 78.2273 218.991 77.625 219.46C77.0227 219.926 76.2936 220.159 75.4375 220.159ZM75.4375 218.909C76.286 218.909 76.9451 218.5 77.4148 217.682C77.8845 216.864 78.1193 215.697 78.1193 214.182C78.1193 213.174 78.0114 212.316 77.7955 211.608C77.5833 210.9 77.2765 210.36 76.875 209.989C76.4773 209.617 75.9981 209.432 75.4375 209.432C74.5966 209.432 73.9394 209.847 73.4659 210.676C72.9924 211.502 72.7557 212.67 72.7557 214.182C72.7557 215.189 72.8617 216.045 73.0739 216.75C73.286 217.455 73.5909 217.991 73.9886 218.358C74.3902 218.725 74.8731 218.909 75.4375 218.909ZM85.4375 220.159C84.5814 220.159 83.8523 219.926 83.25 219.46C82.6477 218.991 82.1875 218.311 81.8693 217.42C81.5511 216.527 81.392 215.447 81.392 214.182C81.392 212.924 81.5511 211.85 81.8693 210.96C82.1913 210.066 82.6534 209.384 83.2557 208.915C83.8617 208.441 84.589 208.205 85.4375 208.205C86.286 208.205 87.0114 208.441 87.6136 208.915C88.2197 209.384 88.6818 210.066 89 210.96C89.322 211.85 89.483 212.924 89.483 214.182C89.483 215.447 89.3239 216.527 89.0057 217.42C88.6875 218.311 88.2273 218.991 87.625 219.46C87.0227 219.926 86.2936 220.159 85.4375 220.159ZM85.4375 218.909C86.286 218.909 86.9451 218.5 87.4148 217.682C87.8845 216.864 88.1193 215.697 88.1193 214.182C88.1193 213.174 88.0114 212.316 87.7955 211.608C87.5833 210.9 87.2765 210.36 86.875 209.989C86.4773 209.617 85.9981 209.432 85.4375 209.432C84.5966 209.432 83.9394 209.847 83.4659 210.676C82.9924 211.502 82.7557 212.67 82.7557 214.182C82.7557 215.189 82.8617 216.045 83.0739 216.75C83.286 217.455 83.5909 217.991 83.9886 218.358C84.3902 218.725 84.8731 218.909 85.4375 218.909Z" fill="white"/>
<path d="M258.35 121V112.273H263.617V113.21H259.407V116.159H263.344V117.097H259.407V120.062H263.685V121H258.35ZM272.442 112.273V121H271.419L266.664 114.148H266.578V121H265.522V112.273H266.544L271.317 119.142H271.402V112.273H272.442ZM281.58 115H280.523C280.46 114.696 280.351 114.429 280.195 114.199C280.041 113.969 279.854 113.776 279.632 113.619C279.413 113.46 279.17 113.341 278.903 113.261C278.636 113.182 278.358 113.142 278.068 113.142C277.54 113.142 277.061 113.276 276.632 113.543C276.206 113.81 275.866 114.203 275.614 114.723C275.364 115.243 275.239 115.881 275.239 116.636C275.239 117.392 275.364 118.03 275.614 118.55C275.866 119.07 276.206 119.463 276.632 119.73C277.061 119.997 277.54 120.131 278.068 120.131C278.358 120.131 278.636 120.091 278.903 120.011C279.17 119.932 279.413 119.814 279.632 119.658C279.854 119.499 280.041 119.304 280.195 119.074C280.351 118.841 280.46 118.574 280.523 118.273H281.58C281.5 118.719 281.355 119.118 281.145 119.47C280.935 119.822 280.673 120.122 280.361 120.369C280.048 120.614 279.697 120.8 279.308 120.928C278.922 121.055 278.509 121.119 278.068 121.119C277.324 121.119 276.662 120.938 276.082 120.574C275.503 120.21 275.047 119.693 274.714 119.023C274.382 118.352 274.216 117.557 274.216 116.636C274.216 115.716 274.382 114.92 274.714 114.25C275.047 113.58 275.503 113.062 276.082 112.699C276.662 112.335 277.324 112.153 278.068 112.153C278.509 112.153 278.922 112.217 279.308 112.345C279.697 112.473 280.048 112.661 280.361 112.908C280.673 113.152 280.935 113.45 281.145 113.803C281.355 114.152 281.5 114.551 281.58 115ZM283.287 121V112.273H286.236C286.918 112.273 287.478 112.389 287.915 112.622C288.353 112.852 288.676 113.169 288.887 113.572C289.097 113.976 289.202 114.435 289.202 114.949C289.202 115.463 289.097 115.919 288.887 116.317C288.676 116.714 288.354 117.027 287.919 117.254C287.485 117.479 286.929 117.591 286.253 117.591H283.867V116.636H286.219C286.685 116.636 287.06 116.568 287.344 116.432C287.631 116.295 287.838 116.102 287.966 115.852C288.097 115.599 288.162 115.298 288.162 114.949C288.162 114.599 288.097 114.294 287.966 114.033C287.836 113.771 287.627 113.57 287.34 113.428C287.053 113.283 286.674 113.21 286.202 113.21H284.344V121H283.287ZM287.395 117.08L289.543 121H288.316L286.202 117.08H287.395ZM289.92 112.273H291.13L293.551 116.347H293.653L296.074 112.273H297.284L294.13 117.403V121H293.074V117.403L289.92 112.273ZM298.651 121V112.273H301.599C302.284 112.273 302.844 112.396 303.278 112.643C303.716 112.888 304.04 113.219 304.25 113.636C304.46 114.054 304.565 114.52 304.565 115.034C304.565 115.548 304.46 116.016 304.25 116.436C304.043 116.857 303.722 117.192 303.287 117.442C302.852 117.689 302.295 117.812 301.616 117.812H299.503V116.875H301.582C302.051 116.875 302.428 116.794 302.712 116.632C302.996 116.47 303.202 116.251 303.33 115.976C303.46 115.697 303.526 115.384 303.526 115.034C303.526 114.685 303.46 114.372 303.33 114.097C303.202 113.821 302.994 113.605 302.707 113.449C302.42 113.29 302.04 113.21 301.565 113.21H299.707V121H298.651ZM305.79 113.21V112.273H312.336V113.21H309.592V121H308.535V113.21H305.79ZM313.967 121V112.273H319.234V113.21H315.024V116.159H318.961V117.097H315.024V120.062H319.302V121H313.967ZM323.832 121H321.139V112.273H323.951C324.798 112.273 325.522 112.447 326.125 112.797C326.727 113.143 327.189 113.642 327.51 114.293C327.831 114.94 327.991 115.716 327.991 116.619C327.991 117.528 327.829 118.311 327.505 118.967C327.181 119.621 326.71 120.124 326.091 120.476C325.471 120.825 324.718 121 323.832 121ZM322.196 120.062H323.764C324.485 120.062 325.083 119.923 325.558 119.645C326.032 119.366 326.386 118.97 326.619 118.456C326.852 117.942 326.968 117.33 326.968 116.619C326.968 115.915 326.853 115.308 326.623 114.8C326.393 114.288 326.049 113.896 325.592 113.624C325.135 113.348 324.565 113.21 323.883 113.21H322.196V120.062Z" fill="#22C55E"/>
<path d="M257.357 145L262.562 134.705V134.614H256.562V133.364H264.016V134.682L258.835 145H257.357ZM265.082 145H263.604L267.877 133.364H269.332L273.604 145H272.127L268.65 135.205H268.559L265.082 145ZM265.627 140.455H271.582V141.705H265.627V140.455ZM274.94 142.614V141.455L280.053 133.364H280.894V135.159H280.326L276.462 141.273V141.364H283.349V142.614H274.94ZM280.417 145V142.261V141.722V133.364H281.758V145H280.417ZM285.683 145V133.364H292.705V134.614H287.092V138.545H292.342V139.795H287.092V143.75H292.796V145H285.683ZM298.768 145.159C297.987 145.159 297.298 145.021 296.7 144.744C296.105 144.464 295.641 144.08 295.308 143.591C294.974 143.098 294.809 142.538 294.813 141.909C294.809 141.417 294.906 140.962 295.103 140.545C295.3 140.125 295.569 139.775 295.91 139.494C296.254 139.21 296.639 139.03 297.063 138.955V138.886C296.506 138.742 296.063 138.43 295.734 137.949C295.404 137.464 295.241 136.913 295.245 136.295C295.241 135.705 295.391 135.176 295.694 134.71C295.997 134.244 296.414 133.877 296.944 133.608C297.478 133.339 298.086 133.205 298.768 133.205C299.442 133.205 300.044 133.339 300.575 133.608C301.105 133.877 301.522 134.244 301.825 134.71C302.131 135.176 302.287 135.705 302.29 136.295C302.287 136.913 302.118 137.464 301.785 137.949C301.455 138.43 301.018 138.742 300.472 138.886V138.955C300.893 139.03 301.272 139.21 301.609 139.494C301.946 139.775 302.215 140.125 302.415 140.545C302.616 140.962 302.719 141.417 302.722 141.909C302.719 142.538 302.548 143.098 302.211 143.591C301.878 144.08 301.414 144.464 300.819 144.744C300.228 145.021 299.544 145.159 298.768 145.159ZM298.768 143.909C299.294 143.909 299.749 143.824 300.131 143.653C300.514 143.483 300.809 143.242 301.018 142.932C301.226 142.621 301.332 142.258 301.336 141.841C301.332 141.402 301.219 141.013 300.995 140.676C300.772 140.339 300.467 140.074 300.08 139.881C299.698 139.687 299.26 139.591 298.768 139.591C298.272 139.591 297.828 139.687 297.438 139.881C297.052 140.074 296.747 140.339 296.523 140.676C296.304 141.013 296.196 141.402 296.2 141.841C296.196 142.258 296.296 142.621 296.501 142.932C296.709 143.242 297.006 143.483 297.393 143.653C297.779 143.824 298.237 143.909 298.768 143.909ZM298.768 138.386C299.184 138.386 299.554 138.303 299.876 138.136C300.201 137.97 300.457 137.737 300.643 137.438C300.828 137.138 300.923 136.788 300.927 136.386C300.923 135.992 300.83 135.65 300.648 135.358C300.467 135.062 300.215 134.835 299.893 134.676C299.571 134.513 299.196 134.432 298.768 134.432C298.332 134.432 297.951 134.513 297.626 134.676C297.3 134.835 297.048 135.062 296.87 135.358C296.692 135.65 296.605 135.992 296.609 136.386C296.605 136.788 296.694 137.138 296.876 137.438C297.061 137.737 297.317 137.97 297.643 138.136C297.969 138.303 298.344 138.386 298.768 138.386ZM305.104 145V133.364H312.082V134.614H306.513V138.545H311.559V139.795H306.513V145H305.104ZM314.29 145V143.977L318.131 139.773C318.582 139.28 318.953 138.852 319.245 138.489C319.537 138.121 319.753 137.777 319.893 137.455C320.037 137.129 320.109 136.788 320.109 136.432C320.109 136.023 320.01 135.669 319.813 135.369C319.62 135.07 319.355 134.839 319.018 134.676C318.681 134.513 318.302 134.432 317.881 134.432C317.434 134.432 317.044 134.525 316.711 134.71C316.381 134.892 316.126 135.148 315.944 135.477C315.766 135.807 315.677 136.193 315.677 136.636H314.336C314.336 135.955 314.493 135.356 314.808 134.841C315.122 134.326 315.55 133.924 316.092 133.636C316.637 133.348 317.249 133.205 317.927 133.205C318.609 133.205 319.213 133.348 319.739 133.636C320.266 133.924 320.679 134.312 320.978 134.801C321.277 135.29 321.427 135.833 321.427 136.432C321.427 136.86 321.349 137.278 321.194 137.688C321.042 138.093 320.777 138.545 320.398 139.045C320.023 139.542 319.503 140.148 318.836 140.864L316.222 143.659V143.75H321.631V145H314.29ZM328.069 133.364V145H326.66V134.841H326.592L323.751 136.727V135.295L326.66 133.364H328.069Z" fill="#22C55E"/>
<path d="M256.011 170.159C255.261 170.159 254.593 170.03 254.006 169.773C253.422 169.515 252.958 169.157 252.614 168.699C252.273 168.237 252.087 167.701 252.057 167.091H253.489C253.519 167.466 253.648 167.79 253.875 168.062C254.102 168.331 254.4 168.54 254.767 168.688C255.134 168.835 255.542 168.909 255.989 168.909C256.489 168.909 256.932 168.822 257.318 168.648C257.705 168.473 258.008 168.231 258.227 167.92C258.447 167.61 258.557 167.25 258.557 166.841C258.557 166.413 258.451 166.036 258.239 165.71C258.027 165.381 257.716 165.123 257.307 164.938C256.898 164.752 256.398 164.659 255.807 164.659H254.875V163.409H255.807C256.269 163.409 256.674 163.326 257.023 163.159C257.375 162.992 257.65 162.758 257.847 162.455C258.047 162.152 258.148 161.795 258.148 161.386C258.148 160.992 258.061 160.65 257.886 160.358C257.712 160.066 257.466 159.839 257.148 159.676C256.833 159.513 256.462 159.432 256.034 159.432C255.633 159.432 255.254 159.506 254.898 159.653C254.545 159.797 254.258 160.008 254.034 160.284C253.811 160.557 253.689 160.886 253.67 161.273H252.307C252.33 160.663 252.513 160.129 252.858 159.67C253.203 159.208 253.653 158.848 254.21 158.591C254.771 158.333 255.386 158.205 256.057 158.205C256.777 158.205 257.394 158.35 257.909 158.642C258.424 158.93 258.82 159.311 259.097 159.784C259.373 160.258 259.511 160.769 259.511 161.318C259.511 161.973 259.339 162.532 258.994 162.994C258.653 163.456 258.189 163.777 257.602 163.955V164.045C258.337 164.167 258.911 164.479 259.324 164.983C259.737 165.483 259.943 166.102 259.943 166.841C259.943 167.473 259.771 168.042 259.426 168.545C259.085 169.045 258.619 169.439 258.028 169.727C257.438 170.015 256.765 170.159 256.011 170.159ZM262.472 170V158.364H266.54C267.35 158.364 268.019 158.504 268.545 158.784C269.072 159.061 269.464 159.434 269.722 159.903C269.979 160.369 270.108 160.886 270.108 161.455C270.108 161.955 270.019 162.367 269.841 162.693C269.667 163.019 269.436 163.277 269.148 163.466C268.864 163.655 268.555 163.795 268.222 163.886V164C268.578 164.023 268.936 164.148 269.295 164.375C269.655 164.602 269.956 164.928 270.199 165.352C270.441 165.777 270.562 166.295 270.562 166.909C270.562 167.492 270.43 168.017 270.165 168.483C269.9 168.949 269.481 169.318 268.909 169.591C268.337 169.864 267.593 170 266.676 170H262.472ZM263.881 168.75H266.676C267.597 168.75 268.25 168.572 268.636 168.216C269.027 167.856 269.222 167.42 269.222 166.909C269.222 166.515 269.121 166.152 268.92 165.818C268.72 165.481 268.434 165.212 268.062 165.011C267.691 164.807 267.252 164.705 266.744 164.705H263.881V168.75ZM263.881 163.477H266.494C266.919 163.477 267.301 163.394 267.642 163.227C267.987 163.061 268.259 162.826 268.46 162.523C268.665 162.22 268.767 161.864 268.767 161.455C268.767 160.943 268.589 160.509 268.233 160.153C267.877 159.794 267.313 159.614 266.54 159.614H263.881V163.477ZM276.378 158.205C276.855 158.208 277.332 158.299 277.81 158.477C278.287 158.655 278.723 158.951 279.116 159.364C279.51 159.773 279.827 160.331 280.065 161.04C280.304 161.748 280.423 162.636 280.423 163.705C280.423 164.739 280.325 165.657 280.128 166.46C279.935 167.259 279.654 167.934 279.287 168.483C278.923 169.032 278.48 169.449 277.957 169.733C277.438 170.017 276.851 170.159 276.196 170.159C275.545 170.159 274.963 170.03 274.452 169.773C273.944 169.511 273.527 169.15 273.202 168.688C272.88 168.222 272.673 167.682 272.582 167.068H273.969C274.094 167.602 274.342 168.044 274.713 168.392C275.088 168.737 275.582 168.909 276.196 168.909C277.094 168.909 277.802 168.517 278.321 167.733C278.844 166.949 279.105 165.841 279.105 164.409H279.014C278.802 164.727 278.55 165.002 278.259 165.233C277.967 165.464 277.643 165.642 277.287 165.767C276.931 165.892 276.552 165.955 276.151 165.955C275.484 165.955 274.872 165.79 274.315 165.46C273.762 165.127 273.319 164.67 272.986 164.091C272.656 163.508 272.491 162.841 272.491 162.091C272.491 161.379 272.651 160.727 272.969 160.136C273.291 159.542 273.741 159.068 274.321 158.716C274.904 158.364 275.59 158.193 276.378 158.205ZM276.378 159.455C275.901 159.455 275.471 159.574 275.088 159.812C274.709 160.047 274.408 160.366 274.185 160.767C273.965 161.165 273.855 161.606 273.855 162.091C273.855 162.576 273.961 163.017 274.173 163.415C274.389 163.809 274.683 164.123 275.054 164.358C275.429 164.589 275.855 164.705 276.332 164.705C276.692 164.705 277.027 164.634 277.338 164.494C277.649 164.35 277.92 164.155 278.151 163.909C278.385 163.659 278.569 163.377 278.702 163.062C278.834 162.744 278.901 162.413 278.901 162.068C278.901 161.614 278.791 161.187 278.571 160.79C278.355 160.392 278.056 160.07 277.673 159.824C277.295 159.578 276.863 159.455 276.378 159.455ZM292.226 162H290.817C290.733 161.595 290.588 161.239 290.379 160.932C290.175 160.625 289.925 160.367 289.629 160.159C289.338 159.947 289.014 159.788 288.658 159.682C288.302 159.576 287.93 159.523 287.544 159.523C286.839 159.523 286.201 159.701 285.629 160.057C285.061 160.413 284.608 160.938 284.271 161.631C283.938 162.324 283.771 163.174 283.771 164.182C283.771 165.189 283.938 166.04 284.271 166.733C284.608 167.426 285.061 167.951 285.629 168.307C286.201 168.663 286.839 168.841 287.544 168.841C287.93 168.841 288.302 168.788 288.658 168.682C289.014 168.576 289.338 168.419 289.629 168.21C289.925 167.998 290.175 167.739 290.379 167.432C290.588 167.121 290.733 166.765 290.817 166.364H292.226C292.12 166.958 291.927 167.491 291.646 167.96C291.366 168.43 291.018 168.83 290.601 169.159C290.184 169.485 289.716 169.733 289.197 169.903C288.682 170.074 288.131 170.159 287.544 170.159C286.552 170.159 285.669 169.917 284.896 169.432C284.124 168.947 283.516 168.258 283.072 167.364C282.629 166.47 282.408 165.409 282.408 164.182C282.408 162.955 282.629 161.894 283.072 161C283.516 160.106 284.124 159.417 284.896 158.932C285.669 158.447 286.552 158.205 287.544 158.205C288.131 158.205 288.682 158.29 289.197 158.46C289.716 158.631 290.184 158.881 290.601 159.21C291.018 159.536 291.366 159.934 291.646 160.403C291.927 160.869 292.12 161.402 292.226 162ZM298.162 170.159C297.685 170.152 297.207 170.061 296.73 169.886C296.253 169.712 295.817 169.419 295.423 169.006C295.029 168.589 294.713 168.027 294.474 167.318C294.236 166.606 294.116 165.712 294.116 164.636C294.116 163.606 294.213 162.693 294.406 161.898C294.599 161.098 294.88 160.426 295.247 159.881C295.615 159.331 296.058 158.915 296.577 158.631C297.099 158.347 297.688 158.205 298.344 158.205C298.995 158.205 299.575 158.335 300.082 158.597C300.594 158.854 301.01 159.214 301.332 159.676C301.654 160.138 301.863 160.67 301.957 161.273H300.571C300.442 160.75 300.192 160.316 299.821 159.972C299.45 159.627 298.957 159.455 298.344 159.455C297.442 159.455 296.732 159.847 296.213 160.631C295.698 161.415 295.438 162.515 295.435 163.932H295.526C295.738 163.61 295.99 163.335 296.281 163.108C296.577 162.877 296.902 162.699 297.259 162.574C297.615 162.449 297.991 162.386 298.389 162.386C299.056 162.386 299.666 162.553 300.219 162.886C300.772 163.216 301.215 163.672 301.548 164.256C301.882 164.835 302.048 165.5 302.048 166.25C302.048 166.97 301.887 167.629 301.565 168.227C301.243 168.822 300.791 169.295 300.207 169.648C299.628 169.996 298.946 170.167 298.162 170.159ZM298.162 168.909C298.639 168.909 299.067 168.79 299.446 168.551C299.829 168.312 300.13 167.992 300.349 167.591C300.573 167.189 300.685 166.742 300.685 166.25C300.685 165.769 300.577 165.331 300.361 164.938C300.149 164.54 299.855 164.223 299.48 163.989C299.109 163.754 298.685 163.636 298.207 163.636C297.848 163.636 297.512 163.708 297.202 163.852C296.891 163.992 296.618 164.186 296.384 164.432C296.152 164.678 295.971 164.96 295.838 165.278C295.705 165.593 295.639 165.924 295.639 166.273C295.639 166.735 295.747 167.167 295.963 167.568C296.183 167.97 296.482 168.294 296.861 168.54C297.243 168.786 297.677 168.909 298.162 168.909ZM308.078 170H304.487V158.364H308.237C309.366 158.364 310.332 158.597 311.135 159.062C311.938 159.525 312.554 160.189 312.982 161.057C313.41 161.92 313.624 162.955 313.624 164.159C313.624 165.371 313.408 166.415 312.976 167.29C312.544 168.161 311.915 168.831 311.089 169.301C310.264 169.767 309.26 170 308.078 170ZM305.896 168.75H307.987C308.949 168.75 309.747 168.564 310.379 168.193C311.012 167.822 311.483 167.294 311.794 166.608C312.105 165.922 312.26 165.106 312.26 164.159C312.26 163.22 312.107 162.411 311.8 161.733C311.493 161.051 311.035 160.528 310.425 160.165C309.815 159.797 309.055 159.614 308.146 159.614H305.896V168.75ZM319.419 170.159C318.752 170.159 318.152 170.027 317.618 169.761C317.084 169.496 316.656 169.133 316.334 168.67C316.012 168.208 315.836 167.682 315.805 167.091H317.169C317.222 167.617 317.461 168.053 317.885 168.398C318.313 168.739 318.824 168.909 319.419 168.909C319.896 168.909 320.321 168.797 320.692 168.574C321.067 168.35 321.36 168.044 321.572 167.653C321.788 167.259 321.896 166.814 321.896 166.318C321.896 165.811 321.785 165.358 321.561 164.96C321.341 164.559 321.038 164.242 320.652 164.011C320.266 163.78 319.824 163.663 319.328 163.659C318.972 163.655 318.607 163.71 318.232 163.824C317.857 163.934 317.548 164.076 317.305 164.25L315.987 164.091L316.692 158.364H322.737V159.614H317.874L317.464 163.045H317.533C317.771 162.856 318.071 162.699 318.43 162.574C318.79 162.449 319.165 162.386 319.555 162.386C320.268 162.386 320.902 162.557 321.459 162.898C322.019 163.235 322.459 163.697 322.777 164.284C323.099 164.871 323.26 165.542 323.26 166.295C323.26 167.038 323.093 167.701 322.76 168.284C322.43 168.864 321.976 169.322 321.396 169.659C320.817 169.992 320.158 170.159 319.419 170.159ZM326.199 170H324.722L328.994 158.364H330.449L334.722 170H333.244L329.767 160.205H329.676L326.199 170ZM326.744 165.455H332.699V166.705H326.744V165.455Z" fill="#22C55E"/>
<path d="M256.058 195V183.364H263.035V184.614H257.467V188.545H262.512V189.795H257.467V195H256.058ZM269.335 183.364V195H267.925V184.841H267.857L265.016 186.727V185.295L267.925 183.364H269.335ZM272.681 195V193.977L276.522 189.773C276.973 189.28 277.344 188.852 277.636 188.489C277.927 188.121 278.143 187.777 278.283 187.455C278.427 187.129 278.499 186.788 278.499 186.432C278.499 186.023 278.401 185.669 278.204 185.369C278.011 185.07 277.746 184.839 277.408 184.676C277.071 184.513 276.692 184.432 276.272 184.432C275.825 184.432 275.435 184.525 275.102 184.71C274.772 184.892 274.516 185.148 274.335 185.477C274.156 185.807 274.067 186.193 274.067 186.636H272.727C272.727 185.955 272.884 185.356 273.198 184.841C273.513 184.326 273.941 183.924 274.482 183.636C275.028 183.348 275.639 183.205 276.317 183.205C276.999 183.205 277.603 183.348 278.13 183.636C278.656 183.924 279.069 184.312 279.369 184.801C279.668 185.29 279.817 185.833 279.817 186.432C279.817 186.86 279.74 187.278 279.585 187.688C279.433 188.093 279.168 188.545 278.789 189.045C278.414 189.542 277.893 190.148 277.227 190.864L274.613 193.659V193.75H280.022V195H272.681ZM282.573 195V183.364H289.596V184.614H283.982V188.545H289.232V189.795H283.982V193.75H289.687V195H282.573ZM291.658 192.614V191.455L296.772 183.364H297.613V185.159H297.045L293.181 191.273V191.364H300.067V192.614H291.658ZM297.136 195V192.261V191.722V183.364H298.477V195H297.136ZM302.879 195H301.401L305.674 183.364H307.129L311.401 195H309.924L306.447 185.205H306.356L302.879 195ZM303.424 190.455H309.379V191.705H303.424V190.455ZM313.373 195L318.577 184.705V184.614H312.577V183.364H320.032V184.682L314.85 195H313.373ZM322.354 195V183.364H326.423C327.233 183.364 327.902 183.504 328.428 183.784C328.955 184.061 329.347 184.434 329.604 184.903C329.862 185.369 329.991 185.886 329.991 186.455C329.991 186.955 329.902 187.367 329.724 187.693C329.549 188.019 329.318 188.277 329.031 188.466C328.746 188.655 328.438 188.795 328.104 188.886V189C328.46 189.023 328.818 189.148 329.178 189.375C329.538 189.602 329.839 189.928 330.082 190.352C330.324 190.777 330.445 191.295 330.445 191.909C330.445 192.492 330.313 193.017 330.048 193.483C329.782 193.949 329.364 194.318 328.792 194.591C328.22 194.864 327.476 195 326.559 195H322.354ZM323.763 193.75H326.559C327.479 193.75 328.133 193.572 328.519 193.216C328.909 192.856 329.104 192.42 329.104 191.909C329.104 191.515 329.004 191.152 328.803 190.818C328.603 190.481 328.317 190.212 327.945 190.011C327.574 189.807 327.135 189.705 326.627 189.705H323.763V193.75ZM323.763 188.477H326.377C326.801 188.477 327.184 188.394 327.525 188.227C327.87 188.061 328.142 187.826 328.343 187.523C328.548 187.22 328.65 186.864 328.65 186.455C328.65 185.943 328.472 185.509 328.116 185.153C327.76 184.794 327.195 184.614 326.423 184.614H323.763V188.477Z" fill="#22C55E"/>
<path d="M257.252 220.159C256.472 220.159 255.782 220.021 255.184 219.744C254.589 219.464 254.125 219.08 253.792 218.591C253.459 218.098 253.294 217.538 253.298 216.909C253.294 216.417 253.39 215.962 253.587 215.545C253.784 215.125 254.053 214.775 254.394 214.494C254.739 214.21 255.123 214.03 255.548 213.955V213.886C254.991 213.742 254.548 213.43 254.218 212.949C253.888 212.464 253.726 211.913 253.729 211.295C253.726 210.705 253.875 210.176 254.178 209.71C254.481 209.244 254.898 208.877 255.428 208.608C255.962 208.339 256.57 208.205 257.252 208.205C257.926 208.205 258.529 208.339 259.059 208.608C259.589 208.877 260.006 209.244 260.309 209.71C260.616 210.176 260.771 210.705 260.775 211.295C260.771 211.913 260.603 212.464 260.269 212.949C259.94 213.43 259.502 213.742 258.957 213.886V213.955C259.377 214.03 259.756 214.21 260.093 214.494C260.43 214.775 260.699 215.125 260.9 215.545C261.101 215.962 261.203 216.417 261.207 216.909C261.203 217.538 261.032 218.098 260.695 218.591C260.362 219.08 259.898 219.464 259.303 219.744C258.712 220.021 258.029 220.159 257.252 220.159ZM257.252 218.909C257.779 218.909 258.233 218.824 258.616 218.653C258.998 218.483 259.294 218.242 259.502 217.932C259.71 217.621 259.817 217.258 259.82 216.841C259.817 216.402 259.703 216.013 259.479 215.676C259.256 215.339 258.951 215.074 258.565 214.881C258.182 214.687 257.745 214.591 257.252 214.591C256.756 214.591 256.313 214.687 255.923 214.881C255.536 215.074 255.231 215.339 255.008 215.676C254.788 216.013 254.68 216.402 254.684 216.841C254.68 217.258 254.781 217.621 254.985 217.932C255.193 218.242 255.491 218.483 255.877 218.653C256.263 218.824 256.722 218.909 257.252 218.909ZM257.252 213.386C257.669 213.386 258.038 213.303 258.36 213.136C258.686 212.97 258.942 212.737 259.127 212.438C259.313 212.138 259.407 211.788 259.411 211.386C259.407 210.992 259.315 210.65 259.133 210.358C258.951 210.062 258.699 209.835 258.377 209.676C258.055 209.513 257.68 209.432 257.252 209.432C256.817 209.432 256.436 209.513 256.11 209.676C255.784 209.835 255.532 210.062 255.354 210.358C255.176 210.65 255.089 210.992 255.093 211.386C255.089 211.788 255.178 212.138 255.36 212.438C255.546 212.737 255.801 212.97 256.127 213.136C256.453 213.303 256.828 213.386 257.252 213.386ZM267.18 220H263.589V208.364H267.339C268.468 208.364 269.433 208.597 270.237 209.062C271.04 209.525 271.655 210.189 272.083 211.057C272.511 211.92 272.725 212.955 272.725 214.159C272.725 215.371 272.509 216.415 272.077 217.29C271.646 218.161 271.017 218.831 270.191 219.301C269.365 219.767 268.362 220 267.18 220ZM264.998 218.75H267.089C268.051 218.75 268.848 218.564 269.481 218.193C270.113 217.822 270.585 217.294 270.896 216.608C271.206 215.922 271.362 215.106 271.362 214.159C271.362 213.22 271.208 212.411 270.901 211.733C270.594 211.051 270.136 210.528 269.526 210.165C268.916 209.797 268.157 209.614 267.248 209.614H264.998V218.75ZM278.521 220.159C277.854 220.159 277.254 220.027 276.719 219.761C276.185 219.496 275.757 219.133 275.435 218.67C275.113 218.208 274.937 217.682 274.907 217.091H276.271C276.324 217.617 276.562 218.053 276.987 218.398C277.415 218.739 277.926 218.909 278.521 218.909C278.998 218.909 279.422 218.797 279.793 218.574C280.168 218.35 280.462 218.044 280.674 217.653C280.89 217.259 280.998 216.814 280.998 216.318C280.998 215.811 280.886 215.358 280.663 214.96C280.443 214.559 280.14 214.242 279.754 214.011C279.367 213.78 278.926 213.663 278.43 213.659C278.074 213.655 277.708 213.71 277.333 213.824C276.958 213.934 276.649 214.076 276.407 214.25L275.089 214.091L275.793 208.364H281.839V209.614H276.975L276.566 213.045H276.634C276.873 212.856 277.172 212.699 277.532 212.574C277.892 212.449 278.267 212.386 278.657 212.386C279.369 212.386 280.004 212.557 280.56 212.898C281.121 213.235 281.56 213.697 281.879 214.284C282.201 214.871 282.362 215.542 282.362 216.295C282.362 217.038 282.195 217.701 281.862 218.284C281.532 218.864 281.077 219.322 280.498 219.659C279.918 219.992 279.259 220.159 278.521 220.159ZM294.187 212H292.778C292.694 211.595 292.549 211.239 292.34 210.932C292.136 210.625 291.886 210.367 291.59 210.159C291.299 209.947 290.975 209.788 290.619 209.682C290.263 209.576 289.891 209.523 289.505 209.523C288.8 209.523 288.162 209.701 287.59 210.057C287.022 210.413 286.569 210.938 286.232 211.631C285.899 212.324 285.732 213.174 285.732 214.182C285.732 215.189 285.899 216.04 286.232 216.733C286.569 217.426 287.022 217.951 287.59 218.307C288.162 218.663 288.8 218.841 289.505 218.841C289.891 218.841 290.263 218.788 290.619 218.682C290.975 218.576 291.299 218.419 291.59 218.21C291.886 217.998 292.136 217.739 292.34 217.432C292.549 217.121 292.694 216.765 292.778 216.364H294.187C294.081 216.958 293.888 217.491 293.607 217.96C293.327 218.43 292.978 218.83 292.562 219.159C292.145 219.485 291.677 219.733 291.158 219.903C290.643 220.074 290.092 220.159 289.505 220.159C288.513 220.159 287.63 219.917 286.857 219.432C286.085 218.947 285.477 218.258 285.033 217.364C284.59 216.47 284.369 215.409 284.369 214.182C284.369 212.955 284.59 211.894 285.033 211C285.477 210.106 286.085 209.417 286.857 208.932C287.63 208.447 288.513 208.205 289.505 208.205C290.092 208.205 290.643 208.29 291.158 208.46C291.677 208.631 292.145 208.881 292.562 209.21C292.978 209.536 293.327 209.934 293.607 210.403C293.888 210.869 294.081 211.402 294.187 212ZM296.259 220V218.977L300.1 214.773C300.551 214.28 300.922 213.852 301.214 213.489C301.505 213.121 301.721 212.777 301.862 212.455C302.005 212.129 302.077 211.788 302.077 211.432C302.077 211.023 301.979 210.669 301.782 210.369C301.589 210.07 301.324 209.839 300.987 209.676C300.649 209.513 300.271 209.432 299.85 209.432C299.403 209.432 299.013 209.525 298.68 209.71C298.35 209.892 298.094 210.148 297.913 210.477C297.735 210.807 297.646 211.193 297.646 211.636H296.305C296.305 210.955 296.462 210.356 296.776 209.841C297.091 209.326 297.519 208.924 298.06 208.636C298.606 208.348 299.218 208.205 299.896 208.205C300.577 208.205 301.182 208.348 301.708 208.636C302.235 208.924 302.647 209.312 302.947 209.801C303.246 210.29 303.396 210.833 303.396 211.432C303.396 211.86 303.318 212.278 303.163 212.688C303.011 213.093 302.746 213.545 302.367 214.045C301.992 214.542 301.471 215.148 300.805 215.864L298.191 218.659V218.75H303.6V220H296.259ZM306.151 220V208.364H313.174V209.614H307.56V213.545H312.81V214.795H307.56V218.75H313.265V220H306.151ZM319.214 208.205C319.691 208.208 320.168 208.299 320.646 208.477C321.123 208.655 321.558 208.951 321.952 209.364C322.346 209.773 322.663 210.331 322.901 211.04C323.14 211.748 323.259 212.636 323.259 213.705C323.259 214.739 323.161 215.657 322.964 216.46C322.771 217.259 322.49 217.934 322.123 218.483C321.759 219.032 321.316 219.449 320.793 219.733C320.274 220.017 319.687 220.159 319.032 220.159C318.38 220.159 317.799 220.03 317.288 219.773C316.78 219.511 316.363 219.15 316.038 218.688C315.716 218.222 315.509 217.682 315.418 217.068H316.805C316.93 217.602 317.178 218.044 317.549 218.392C317.924 218.737 318.418 218.909 319.032 218.909C319.93 218.909 320.638 218.517 321.157 217.733C321.68 216.949 321.941 215.841 321.941 214.409H321.85C321.638 214.727 321.386 215.002 321.094 215.233C320.803 215.464 320.479 215.642 320.123 215.767C319.767 215.892 319.388 215.955 318.987 215.955C318.32 215.955 317.708 215.79 317.151 215.46C316.598 215.127 316.155 214.67 315.822 214.091C315.492 213.508 315.327 212.841 315.327 212.091C315.327 211.379 315.487 210.727 315.805 210.136C316.127 209.542 316.577 209.068 317.157 208.716C317.74 208.364 318.426 208.193 319.214 208.205ZM319.214 209.455C318.737 209.455 318.307 209.574 317.924 209.812C317.545 210.047 317.244 210.366 317.021 210.767C316.801 211.165 316.691 211.606 316.691 212.091C316.691 212.576 316.797 213.017 317.009 213.415C317.225 213.809 317.519 214.123 317.89 214.358C318.265 214.589 318.691 214.705 319.168 214.705C319.528 214.705 319.863 214.634 320.174 214.494C320.485 214.35 320.755 214.155 320.987 213.909C321.221 213.659 321.405 213.377 321.538 213.062C321.67 212.744 321.737 212.413 321.737 212.068C321.737 211.614 321.627 211.187 321.407 210.79C321.191 210.392 320.892 210.07 320.509 209.824C320.13 209.578 319.699 209.455 319.214 209.455ZM325.698 220V208.364H332.675V209.614H327.107V213.545H332.153V214.795H327.107V220H325.698Z" fill="#22C55E"/>
<path d="M93 146H253Z" fill="black"/>
<path d="M93 146H253" stroke="#22C55E" stroke-width="1.5" stroke-dasharray="5 3"/>
<path d="M248 146L238 141V151L248 146Z" fill="#22C55E"/>
<path d="M93 171H253Z" fill="black"/>
<path d="M93 171H253" stroke="#22C55E" stroke-width="1.5" stroke-dasharray="5 3"/>
<path d="M248 171L238 166V176L248 171Z" fill="#22C55E"/>
<path d="M93 196H253Z" fill="black"/>
<path d="M93 196H253" stroke="#22C55E" stroke-width="1.5" stroke-dasharray="5 3"/>
<path d="M248 196L238 191V201L248 196Z" fill="#22C55E"/>
<path d="M93 221H253Z" fill="black"/>
<path d="M93 221H253" stroke="#22C55E" stroke-width="1.5" stroke-dasharray="5 3"/>
<path d="M248 221L238 216V226L248 221Z" fill="#22C55E"/>
<path d="M104.675 273V257.661H116.049V260.256H107.773V263.656H115.473V266.241H107.773V270.416H116.342V273H104.675ZM119 273V257.661H122.013L128.291 267.904V257.661H131.168V273H128.061L121.877 262.997V273H119ZM144.268 267.36L147.271 268.312C146.811 269.987 146.043 271.232 144.969 272.048C143.902 272.857 142.545 273.262 140.899 273.262C138.862 273.262 137.188 272.568 135.877 271.179C134.565 269.784 133.91 267.88 133.91 265.467C133.91 262.914 134.569 260.932 135.887 259.523C137.205 258.107 138.939 257.399 141.087 257.399C142.964 257.399 144.488 257.954 145.66 259.063C146.357 259.719 146.88 260.66 147.229 261.888L144.164 262.621C143.982 261.825 143.602 261.198 143.023 260.737C142.451 260.277 141.753 260.047 140.93 260.047C139.793 260.047 138.869 260.455 138.158 261.271C137.453 262.087 137.101 263.409 137.101 265.236C137.101 267.176 137.45 268.557 138.147 269.38C138.845 270.203 139.752 270.614 140.868 270.614C141.691 270.614 142.399 270.353 142.992 269.83C143.585 269.307 144.01 268.483 144.268 267.36ZM149.95 273V257.661H156.468C158.107 257.661 159.297 257.801 160.036 258.08C160.783 258.352 161.379 258.84 161.825 259.544C162.272 260.249 162.495 261.055 162.495 261.961C162.495 263.112 162.157 264.064 161.48 264.818C160.803 265.564 159.792 266.035 158.446 266.23C159.115 266.621 159.666 267.05 160.099 267.517C160.538 267.985 161.128 268.815 161.867 270.008L163.74 273H160.036L157.797 269.662C157.002 268.469 156.458 267.72 156.165 267.413C155.872 267.099 155.561 266.886 155.234 266.774C154.906 266.656 154.386 266.597 153.675 266.597H153.047V273H149.95ZM153.047 264.148H155.338C156.824 264.148 157.752 264.085 158.121 263.96C158.491 263.834 158.781 263.618 158.99 263.311C159.199 263.004 159.304 262.621 159.304 262.16C159.304 261.644 159.164 261.229 158.885 260.915C158.613 260.594 158.226 260.392 157.724 260.308C157.473 260.273 156.719 260.256 155.464 260.256H153.047V264.148ZM168.658 273V266.544L163.039 257.661H166.67L170.28 263.73L173.816 257.661H177.384L171.744 266.565V273H168.658ZM178.922 273V257.661H183.892C185.776 257.661 187.003 257.738 187.575 257.891C188.454 258.121 189.19 258.624 189.783 259.398C190.376 260.165 190.672 261.159 190.672 262.38C190.672 263.322 190.501 264.113 190.16 264.755C189.818 265.397 189.382 265.902 188.852 266.272C188.329 266.635 187.795 266.876 187.251 266.994C186.511 267.141 185.441 267.214 184.039 267.214H182.019V273H178.922ZM182.019 260.256V264.609H183.714C184.935 264.609 185.751 264.528 186.163 264.368C186.574 264.207 186.895 263.956 187.125 263.615C187.362 263.273 187.481 262.875 187.481 262.422C187.481 261.864 187.317 261.403 186.989 261.041C186.661 260.678 186.246 260.451 185.744 260.36C185.374 260.291 184.632 260.256 183.515 260.256H182.019ZM196.668 273V260.256H192.116V257.661H204.306V260.256H199.765V273H196.668ZM206.221 273V257.661H209.318V273H206.221ZM211.651 265.425C211.651 263.862 211.885 262.551 212.352 261.491C212.701 260.709 213.175 260.008 213.775 259.387C214.382 258.767 215.045 258.306 215.763 258.006C216.719 257.602 217.821 257.399 219.069 257.399C221.329 257.399 223.136 258.1 224.489 259.503C225.849 260.905 226.53 262.854 226.53 265.351C226.53 267.828 225.856 269.767 224.51 271.169C223.164 272.564 221.364 273.262 219.111 273.262C216.83 273.262 215.017 272.568 213.67 271.179C212.324 269.784 211.651 267.866 211.651 265.425ZM214.842 265.32C214.842 267.057 215.243 268.375 216.045 269.275C216.848 270.168 217.866 270.614 219.101 270.614C220.335 270.614 221.347 270.171 222.135 269.286C222.93 268.393 223.328 267.057 223.328 265.278C223.328 263.52 222.941 262.209 222.166 261.344C221.399 260.479 220.377 260.047 219.101 260.047C217.824 260.047 216.795 260.486 216.014 261.365C215.233 262.237 214.842 263.555 214.842 265.32ZM228.988 273V257.661H232.002L238.28 267.904V257.661H241.157V273H238.05L231.866 262.997V273H228.988Z" fill="#22C55E"/>
<path d="M63.377 364L67.2256 353.979H68.6543L72.7559 364H71.2451L70.0762 360.965H65.8857L64.7852 364H63.377ZM66.2686 359.885H69.666L68.6201 357.109C68.3011 356.266 68.0641 355.574 67.9092 355.031C67.7816 355.674 67.6016 356.312 67.3691 356.945L66.2686 359.885ZM73.8428 364V353.979H81.0889V355.161H75.1689V358.23H80.7129V359.406H75.1689V362.817H81.3213V364H73.8428ZM82.7021 360.78L83.9531 360.671C84.0124 361.172 84.1491 361.585 84.3633 361.908C84.582 362.227 84.9193 362.487 85.375 362.688C85.8307 362.883 86.3434 362.981 86.9131 362.981C87.4189 362.981 87.8656 362.906 88.2529 362.756C88.6403 362.605 88.9274 362.4 89.1143 362.141C89.3057 361.876 89.4014 361.589 89.4014 361.279C89.4014 360.965 89.3102 360.691 89.1279 360.459C88.9456 360.222 88.6449 360.024 88.2256 359.864C87.9567 359.759 87.362 359.598 86.4414 359.379C85.5208 359.156 84.876 358.946 84.5068 358.75C84.0283 358.499 83.6706 358.189 83.4336 357.82C83.2012 357.447 83.085 357.03 83.085 356.569C83.085 356.063 83.2285 355.592 83.5156 355.154C83.8027 354.712 84.222 354.377 84.7734 354.149C85.3249 353.922 85.9378 353.808 86.6123 353.808C87.3551 353.808 88.0091 353.928 88.5742 354.17C89.1439 354.407 89.5814 354.758 89.8867 355.223C90.1921 355.688 90.3561 356.214 90.3789 356.802L89.1074 356.897C89.0391 356.264 88.8066 355.785 88.4102 355.462C88.0182 355.138 87.4372 354.977 86.667 354.977C85.8649 354.977 85.2793 355.125 84.9102 355.421C84.5456 355.713 84.3633 356.066 84.3633 356.48C84.3633 356.84 84.4932 357.137 84.7529 357.369C85.0081 357.602 85.6735 357.841 86.749 358.087C87.8291 358.328 88.5697 358.54 88.9707 358.723C89.554 358.992 89.9847 359.333 90.2627 359.748C90.5407 360.158 90.6797 360.632 90.6797 361.17C90.6797 361.703 90.527 362.207 90.2217 362.681C89.9163 363.15 89.4766 363.517 88.9023 363.781C88.3327 364.041 87.6901 364.171 86.9746 364.171C86.0677 364.171 85.3066 364.039 84.6914 363.774C84.0807 363.51 83.5999 363.114 83.249 362.585C82.9027 362.052 82.7204 361.45 82.7021 360.78ZM91.8555 360.992V359.755H95.6357V360.992H91.8555ZM103.121 362.817V364H96.4971C96.488 363.704 96.5358 363.419 96.6406 363.146C96.8092 362.694 97.0781 362.25 97.4473 361.812C97.821 361.375 98.3587 360.869 99.0605 360.295C100.15 359.402 100.886 358.695 101.269 358.176C101.651 357.652 101.843 357.157 101.843 356.692C101.843 356.205 101.667 355.795 101.316 355.462C100.97 355.125 100.517 354.956 99.9561 354.956C99.3636 354.956 98.8896 355.134 98.5342 355.489C98.1787 355.845 97.9987 356.337 97.9941 356.966L96.7295 356.836C96.8161 355.893 97.1419 355.175 97.707 354.683C98.2721 354.186 99.0309 353.938 99.9834 353.938C100.945 353.938 101.706 354.204 102.267 354.737C102.827 355.271 103.107 355.931 103.107 356.72C103.107 357.121 103.025 357.515 102.861 357.902C102.697 358.29 102.424 358.698 102.041 359.126C101.663 359.554 101.032 360.142 100.147 360.89C99.4092 361.509 98.9352 361.931 98.7256 362.154C98.516 362.373 98.3428 362.594 98.2061 362.817H103.121ZM104.447 361.375L105.739 361.266C105.835 361.895 106.056 362.368 106.402 362.688C106.753 363.002 107.175 363.159 107.667 363.159C108.259 363.159 108.761 362.936 109.171 362.489C109.581 362.043 109.786 361.45 109.786 360.712C109.786 360.01 109.588 359.456 109.191 359.051C108.799 358.645 108.285 358.442 107.646 358.442C107.25 358.442 106.892 358.534 106.573 358.716C106.254 358.894 106.004 359.126 105.821 359.413L104.666 359.263L105.637 354.115H110.62V355.291H106.621L106.081 357.984C106.683 357.565 107.314 357.355 107.975 357.355C108.85 357.355 109.588 357.659 110.189 358.265C110.791 358.871 111.092 359.65 111.092 360.603C111.092 361.509 110.827 362.293 110.299 362.954C109.656 363.765 108.779 364.171 107.667 364.171C106.756 364.171 106.01 363.916 105.432 363.405C104.857 362.895 104.529 362.218 104.447 361.375ZM118.625 356.433L117.401 356.528C117.292 356.045 117.137 355.694 116.937 355.476C116.604 355.125 116.194 354.949 115.706 354.949C115.314 354.949 114.97 355.059 114.674 355.277C114.286 355.56 113.981 355.972 113.758 356.515C113.535 357.057 113.418 357.829 113.409 358.832C113.705 358.381 114.068 358.046 114.496 357.827C114.924 357.608 115.373 357.499 115.843 357.499C116.663 357.499 117.36 357.802 117.935 358.408C118.513 359.01 118.803 359.789 118.803 360.746C118.803 361.375 118.666 361.961 118.393 362.503C118.124 363.041 117.752 363.453 117.278 363.74C116.804 364.027 116.267 364.171 115.665 364.171C114.64 364.171 113.803 363.795 113.156 363.043C112.509 362.286 112.186 361.042 112.186 359.311C112.186 357.374 112.543 355.965 113.259 355.086C113.883 354.32 114.724 353.938 115.781 353.938C116.57 353.938 117.215 354.159 117.716 354.601C118.222 355.043 118.525 355.653 118.625 356.433ZM113.601 360.753C113.601 361.177 113.689 361.582 113.867 361.97C114.049 362.357 114.302 362.653 114.626 362.858C114.95 363.059 115.289 363.159 115.645 363.159C116.164 363.159 116.611 362.95 116.984 362.53C117.358 362.111 117.545 361.541 117.545 360.821C117.545 360.129 117.36 359.584 116.991 359.188C116.622 358.786 116.157 358.586 115.597 358.586C115.041 358.586 114.569 358.786 114.182 359.188C113.794 359.584 113.601 360.106 113.601 360.753ZM124.634 366.946V353.808H125.707V366.946H124.634ZM131.982 364V353.979H136.426C137.319 353.979 137.998 354.07 138.463 354.252C138.928 354.43 139.299 354.746 139.577 355.202C139.855 355.658 139.994 356.161 139.994 356.713C139.994 357.424 139.764 358.023 139.304 358.511C138.843 358.998 138.132 359.308 137.171 359.44C137.522 359.609 137.788 359.775 137.971 359.939C138.358 360.295 138.725 360.739 139.071 361.272L140.814 364H139.146L137.82 361.915C137.433 361.313 137.114 360.853 136.863 360.534C136.613 360.215 136.387 359.992 136.187 359.864C135.991 359.737 135.79 359.648 135.585 359.598C135.435 359.566 135.188 359.55 134.847 359.55H133.309V364H131.982ZM133.309 358.401H136.159C136.765 358.401 137.239 358.34 137.581 358.217C137.923 358.089 138.183 357.889 138.36 357.615C138.538 357.337 138.627 357.036 138.627 356.713C138.627 356.239 138.454 355.849 138.107 355.544C137.766 355.239 137.223 355.086 136.48 355.086H133.309V358.401ZM141.628 360.78L142.879 360.671C142.938 361.172 143.075 361.585 143.289 361.908C143.508 362.227 143.845 362.487 144.301 362.688C144.757 362.883 145.269 362.981 145.839 362.981C146.345 362.981 146.791 362.906 147.179 362.756C147.566 362.605 147.853 362.4 148.04 362.141C148.231 361.876 148.327 361.589 148.327 361.279C148.327 360.965 148.236 360.691 148.054 360.459C147.871 360.222 147.571 360.024 147.151 359.864C146.882 359.759 146.288 359.598 145.367 359.379C144.447 359.156 143.802 358.946 143.433 358.75C142.954 358.499 142.596 358.189 142.359 357.82C142.127 357.447 142.011 357.03 142.011 356.569C142.011 356.063 142.154 355.592 142.441 355.154C142.729 354.712 143.148 354.377 143.699 354.149C144.251 353.922 144.864 353.808 145.538 353.808C146.281 353.808 146.935 353.928 147.5 354.17C148.07 354.407 148.507 354.758 148.812 355.223C149.118 355.688 149.282 356.214 149.305 356.802L148.033 356.897C147.965 356.264 147.732 355.785 147.336 355.462C146.944 355.138 146.363 354.977 145.593 354.977C144.791 354.977 144.205 355.125 143.836 355.421C143.471 355.713 143.289 356.066 143.289 356.48C143.289 356.84 143.419 357.137 143.679 357.369C143.934 357.602 144.599 357.841 145.675 358.087C146.755 358.328 147.495 358.54 147.896 358.723C148.48 358.992 148.91 359.333 149.188 359.748C149.466 360.158 149.605 360.632 149.605 361.17C149.605 361.703 149.453 362.207 149.147 362.681C148.842 363.15 148.402 363.517 147.828 363.781C147.258 364.041 146.616 364.171 145.9 364.171C144.993 364.171 144.232 364.039 143.617 363.774C143.007 363.51 142.526 363.114 142.175 362.585C141.828 362.052 141.646 361.45 141.628 360.78ZM150.316 364L154.165 353.979H155.594L159.695 364H158.185L157.016 360.965H152.825L151.725 364H150.316ZM153.208 359.885H156.605L155.56 357.109C155.241 356.266 155.004 355.574 154.849 355.031C154.721 355.674 154.541 356.312 154.309 356.945L153.208 359.885ZM160.119 360.992V359.755H163.899V360.992H160.119ZM171.385 362.817V364H164.761C164.752 363.704 164.799 363.419 164.904 363.146C165.073 362.694 165.342 362.25 165.711 361.812C166.085 361.375 166.622 360.869 167.324 360.295C168.413 359.402 169.149 358.695 169.532 358.176C169.915 357.652 170.106 357.157 170.106 356.692C170.106 356.205 169.931 355.795 169.58 355.462C169.234 355.125 168.78 354.956 168.22 354.956C167.627 354.956 167.153 355.134 166.798 355.489C166.442 355.845 166.262 356.337 166.258 356.966L164.993 356.836C165.08 355.893 165.406 355.175 165.971 354.683C166.536 354.186 167.295 353.938 168.247 353.938C169.209 353.938 169.97 354.204 170.53 354.737C171.091 355.271 171.371 355.931 171.371 356.72C171.371 357.121 171.289 357.515 171.125 357.902C170.961 358.29 170.688 358.698 170.305 359.126C169.926 359.554 169.295 360.142 168.411 360.89C167.673 361.509 167.199 361.931 166.989 362.154C166.78 362.373 166.606 362.594 166.47 362.817H171.385ZM172.711 359.058C172.711 357.873 172.832 356.92 173.073 356.2C173.319 355.476 173.682 354.917 174.16 354.525C174.643 354.133 175.249 353.938 175.979 353.938C176.516 353.938 176.988 354.047 177.394 354.266C177.799 354.48 178.134 354.792 178.398 355.202C178.663 355.608 178.87 356.104 179.021 356.692C179.171 357.276 179.246 358.064 179.246 359.058C179.246 360.233 179.125 361.184 178.884 361.908C178.642 362.628 178.28 363.187 177.797 363.583C177.318 363.975 176.712 364.171 175.979 364.171C175.012 364.171 174.254 363.825 173.702 363.132C173.041 362.298 172.711 360.94 172.711 359.058ZM173.976 359.058C173.976 360.703 174.167 361.799 174.55 362.346C174.937 362.888 175.413 363.159 175.979 363.159C176.544 363.159 177.018 362.886 177.4 362.339C177.788 361.792 177.981 360.698 177.981 359.058C177.981 357.408 177.788 356.312 177.4 355.77C177.018 355.227 176.539 354.956 175.965 354.956C175.4 354.956 174.949 355.195 174.611 355.674C174.188 356.285 173.976 357.412 173.976 359.058ZM184.448 364V361.601H180.101V360.473L184.674 353.979H185.679V360.473H187.032V361.601H185.679V364H184.448ZM184.448 360.473V355.954L181.311 360.473H184.448ZM190.19 358.565C189.68 358.379 189.302 358.112 189.056 357.766C188.81 357.419 188.687 357.005 188.687 356.521C188.687 355.792 188.949 355.179 189.473 354.683C189.997 354.186 190.694 353.938 191.564 353.938C192.439 353.938 193.144 354.193 193.677 354.703C194.21 355.209 194.477 355.826 194.477 356.556C194.477 357.021 194.354 357.426 194.107 357.772C193.866 358.114 193.497 358.379 193 358.565C193.615 358.766 194.082 359.09 194.401 359.536C194.725 359.983 194.887 360.516 194.887 361.136C194.887 361.993 194.584 362.713 193.978 363.296C193.371 363.879 192.574 364.171 191.585 364.171C190.596 364.171 189.799 363.879 189.192 363.296C188.586 362.708 188.283 361.977 188.283 361.102C188.283 360.45 188.447 359.905 188.775 359.468C189.108 359.026 189.58 358.725 190.19 358.565ZM189.944 356.48C189.944 356.954 190.097 357.342 190.402 357.643C190.708 357.943 191.104 358.094 191.592 358.094C192.066 358.094 192.453 357.946 192.754 357.649C193.059 357.349 193.212 356.982 193.212 356.549C193.212 356.098 193.055 355.719 192.74 355.414C192.43 355.104 192.043 354.949 191.578 354.949C191.109 354.949 190.719 355.1 190.409 355.4C190.099 355.701 189.944 356.061 189.944 356.48ZM189.548 361.108C189.548 361.459 189.63 361.799 189.794 362.127C189.963 362.455 190.211 362.71 190.539 362.893C190.867 363.07 191.22 363.159 191.599 363.159C192.187 363.159 192.672 362.97 193.055 362.592C193.438 362.214 193.629 361.733 193.629 361.149C193.629 360.557 193.431 360.067 193.034 359.68C192.642 359.292 192.15 359.099 191.558 359.099C190.979 359.099 190.498 359.29 190.115 359.673C189.737 360.056 189.548 360.534 189.548 361.108ZM200.69 366.946V353.808H201.764V366.946H200.69ZM208.046 364V353.979H215.292V355.161H209.372V358.23H214.916V359.406H209.372V362.817H215.524V364H208.046ZM217.343 364V353.979H218.703L223.967 361.847V353.979H225.238V364H223.878L218.614 356.125V364H217.343ZM227.474 364V353.979H230.926C231.705 353.979 232.3 354.026 232.71 354.122C233.284 354.254 233.774 354.493 234.18 354.84C234.708 355.286 235.103 355.858 235.362 356.556C235.627 357.248 235.759 358.041 235.759 358.935C235.759 359.696 235.67 360.37 235.492 360.958C235.314 361.546 235.087 362.034 234.809 362.421C234.531 362.804 234.225 363.107 233.893 363.33C233.564 363.549 233.166 363.715 232.696 363.829C232.231 363.943 231.696 364 231.09 364H227.474ZM228.8 362.817H230.939C231.6 362.817 232.118 362.756 232.491 362.633C232.869 362.51 233.17 362.337 233.394 362.113C233.708 361.799 233.952 361.377 234.125 360.849C234.303 360.315 234.392 359.671 234.392 358.914C234.392 357.866 234.218 357.062 233.872 356.501C233.53 355.936 233.113 355.558 232.621 355.366C232.266 355.229 231.694 355.161 230.905 355.161H228.8V362.817ZM236.955 360.992V359.755H240.735V360.992H236.955ZM244.803 364V355.161H241.501V353.979H249.444V355.161H246.129V364H244.803ZM250.148 359.119C250.148 357.456 250.595 356.155 251.488 355.216C252.382 354.272 253.535 353.801 254.947 353.801C255.872 353.801 256.706 354.022 257.449 354.464C258.192 354.906 258.757 355.523 259.145 356.316C259.536 357.105 259.732 358 259.732 359.003C259.732 360.019 259.527 360.928 259.117 361.73C258.707 362.533 258.126 363.141 257.374 363.556C256.622 363.966 255.811 364.171 254.94 364.171C253.997 364.171 253.154 363.943 252.411 363.487C251.668 363.032 251.105 362.41 250.723 361.621C250.34 360.833 250.148 359.999 250.148 359.119ZM251.516 359.14C251.516 360.347 251.839 361.3 252.486 361.997C253.138 362.69 253.954 363.036 254.934 363.036C255.932 363.036 256.752 362.685 257.395 361.983C258.042 361.282 258.365 360.286 258.365 358.996C258.365 358.18 258.226 357.469 257.948 356.863C257.675 356.253 257.271 355.781 256.738 355.448C256.21 355.111 255.615 354.942 254.954 354.942C254.015 354.942 253.206 355.266 252.527 355.913C251.853 356.556 251.516 357.631 251.516 359.14ZM260.812 360.992V359.755H264.593V360.992H260.812ZM266.138 364V353.979H273.384V355.161H267.464V358.23H273.008V359.406H267.464V362.817H273.616V364H266.138ZM275.435 364V353.979H276.795L282.059 361.847V353.979H283.33V364H281.97L276.706 356.125V364H275.435ZM285.565 364V353.979H289.018C289.797 353.979 290.392 354.026 290.802 354.122C291.376 354.254 291.866 354.493 292.271 354.84C292.8 355.286 293.194 355.858 293.454 356.556C293.718 357.248 293.851 358.041 293.851 358.935C293.851 359.696 293.762 360.37 293.584 360.958C293.406 361.546 293.178 362.034 292.9 362.421C292.622 362.804 292.317 363.107 291.984 363.33C291.656 363.549 291.257 363.715 290.788 363.829C290.323 363.943 289.788 364 289.182 364H285.565ZM286.892 362.817H289.031C289.692 362.817 290.209 362.756 290.583 362.633C290.961 362.51 291.262 362.337 291.485 362.113C291.8 361.799 292.044 361.377 292.217 360.849C292.395 360.315 292.483 359.671 292.483 358.914C292.483 357.866 292.31 357.062 291.964 356.501C291.622 355.936 291.205 355.558 290.713 355.366C290.357 355.229 289.785 355.161 288.997 355.161H286.892V362.817Z" fill="white"/>
<path d="M3 54C4.65685 54 6 52.6569 6 51C6 49.3431 4.65685 48 3 48C1.34315 48 0 49.3431 0 51C0 52.6569 1.34315 54 3 54Z" fill="#22C55E" fill-opacity="0.8"/>
<path d="M33 24C34.6569 24 36 22.6569 36 21C36 19.3431 34.6569 18 33 18C31.3431 18 30 19.3431 30 21C30 22.6569 31.3431 24 33 24Z" fill="#22C55E" fill-opacity="0.8"/>
<path d="M63 14C64.6569 14 66 12.6569 66 11C66 9.34315 64.6569 8 63 8C61.3431 8 60 9.34315 60 11C60 12.6569 61.3431 14 63 14Z" fill="#22C55E" fill-opacity="0.8"/>
<path d="M3 51L33 21" stroke="#22C55E" stroke-opacity="0.5"/>
<path d="M33 21L63 11" stroke="#22C55E" stroke-opacity="0.5"/>
<path d="M343 54C344.657 54 346 52.6569 346 51C346 49.3431 344.657 48 343 48C341.343 48 340 49.3431 340 51C340 52.6569 341.343 54 343 54Z" fill="#22C55E" fill-opacity="0.8"/>
<path d="M313 24C314.657 24 316 22.6569 316 21C316 19.3431 314.657 18 313 18C311.343 18 310 19.3431 310 21C310 22.6569 311.343 24 313 24Z" fill="#22C55E" fill-opacity="0.8"/>
<path d="M283 14C284.657 14 286 12.6569 286 11C286 9.34315 284.657 8 283 8C281.343 8 280 9.34315 280 11C280 12.6569 281.343 14 283 14Z" fill="#22C55E" fill-opacity="0.8"/>
<path d="M343 51L313 21" stroke="#22C55E" stroke-opacity="0.5"/>
<path d="M313 21L283 11" stroke="#22C55E" stroke-opacity="0.5"/>
<path d="M3 294C4.65685 294 6 292.657 6 291C6 289.343 4.65685 288 3 288C1.34315 288 0 289.343 0 291C0 292.657 1.34315 294 3 294Z" fill="#22C55E" fill-opacity="0.8"/>
<path d="M33 324C34.6569 324 36 322.657 36 321C36 319.343 34.6569 318 33 318C31.3431 318 30 319.343 30 321C30 322.657 31.3431 324 33 324Z" fill="#22C55E" fill-opacity="0.8"/>
<path d="M63 334C64.6569 334 66 332.657 66 331C66 329.343 64.6569 328 63 328C61.3431 328 60 329.343 60 331C60 332.657 61.3431 334 63 334Z" fill="#22C55E" fill-opacity="0.8"/>
<path d="M3 291L33 321" stroke="#22C55E" stroke-opacity="0.5"/>
<path d="M33 321L63 331" stroke="#22C55E" stroke-opacity="0.5"/>
<path d="M343 294C344.657 294 346 292.657 346 291C346 289.343 344.657 288 343 288C341.343 288 340 289.343 340 291C340 292.657 341.343 294 343 294Z" fill="#22C55E" fill-opacity="0.8"/>
<path d="M313 324C314.657 324 316 322.657 316 321C316 319.343 314.657 318 313 318C311.343 318 310 319.343 310 321C310 322.657 311.343 324 313 324Z" fill="#22C55E" fill-opacity="0.8"/>
<path d="M283 334C284.657 334 286 332.657 286 331C286 329.343 284.657 328 283 328C281.343 328 280 329.343 280 331C280 332.657 281.343 334 283 334Z" fill="#22C55E" fill-opacity="0.8"/>
<path d="M343 291L313 321" stroke="#22C55E" stroke-opacity="0.5"/>
<path d="M313 321L283 331" stroke="#22C55E" stroke-opacity="0.5"/>
</svg>
