<svg width="344" height="388" viewBox="0 0 344 388" fill="none" xmlns="http://www.w3.org/2000/svg">
<path d="M172 342C265.888 342 342 265.888 342 172C342 78.1116 265.888 2 172 2C78.1116 2 2 78.1116 2 172C2 265.888 78.1116 342 172 342Z" stroke="#22C55E" stroke-opacity="0.3" stroke-width="4"/>
<path d="M172 322C254.843 322 322 254.843 322 172C322 89.1573 254.843 22 172 22C89.1573 22 22 89.1573 22 172C22 254.843 89.1573 322 172 322Z" fill="#0A0A0A" stroke="#22C55E" stroke-width="2"/>
<path d="M172 7L177 22H192L182 32L187 47L172 37L157 47L162 32L152 22H167L172 7Z" fill="#22C55E" fill-opacity="0.5"/>
<path d="M254.5 29.1058L251.33 44.5962L264.321 52.0962L250.66 55.7565L247.491 71.2469L239.5 55.0866L221.51 56.2469L233.34 45.7565L229.68 32.0962L242.67 39.5962L254.5 29.1058Z" fill="#22C55E" fill-opacity="0.5"/>
<path d="M314.894 89.5L304.404 101.33L311.904 114.32L298.243 110.66L287.753 122.49L288.913 104.5L272.753 96.5096L288.243 93.3397L291.904 79.6794L299.404 92.6698L314.894 89.5Z" fill="#22C55E" fill-opacity="0.5"/>
<path d="M337 172L322 177V192L312 182L297 187L307 172L297 157L312 162L322 152V167L337 172Z" fill="#22C55E" fill-opacity="0.5"/>
<path d="M314.894 254.5L299.404 251.33L291.904 264.32L288.243 250.66L272.753 247.49L288.913 239.5L287.753 221.51L298.243 233.34L311.904 229.679L304.404 242.67L314.894 254.5Z" fill="#22C55E" fill-opacity="0.5"/>
<path d="M254.5 314.894L242.67 304.404L229.679 311.904L233.34 298.244L221.509 287.753L239.5 288.914L247.49 272.753L250.66 288.244L264.32 291.904L251.33 299.404L254.5 314.894Z" fill="#22C55E" fill-opacity="0.5"/>
<path d="M172 337L167 322H152L162 312L157 297L172 307L187 297L182 312L192 322H177L172 337Z" fill="#22C55E" fill-opacity="0.5"/>
<path d="M89.4998 314.894L92.6697 299.404L79.6793 291.904L93.3396 288.244L96.5094 272.753L104.5 288.914L122.49 287.753L110.66 298.244L114.32 311.904L101.33 304.404L89.4998 314.894Z" fill="#22C55E" fill-opacity="0.5"/>
<path d="M29.106 254.5L39.5963 242.67L32.0963 229.68L45.7566 233.34L56.247 221.51L55.0867 239.5L71.247 247.49L55.7566 250.66L52.0963 264.321L44.5963 251.33L29.106 254.5Z" fill="#22C55E" fill-opacity="0.5"/>
<path d="M7 172L22 167V152L32 162L47 157L37 172L47 187L32 182L22 192L22 177L7 172Z" fill="#22C55E" fill-opacity="0.5"/>
<path d="M29.106 89.5L44.5963 92.6699L52.0963 79.6795L55.7566 93.3398L71.247 96.5097L55.0867 104.5L56.247 122.49L45.7566 110.66L32.0963 114.321L39.5963 101.33L29.106 89.5Z" fill="#22C55E" fill-opacity="0.5"/>
<path d="M89.5002 29.1058L101.33 39.5962L114.321 32.0962L110.66 45.7565L122.491 56.2469L104.5 55.0866L96.5098 71.2469L93.3399 55.7565L79.6797 52.0962L92.6701 44.5962L89.5002 29.1058Z" fill="#22C55E" fill-opacity="0.5"/>
<path d="M172 52L252 92V172C252 227 217 272 172 292C127 272 92 227 92 172V92L172 52Z" stroke="#22C55E" stroke-width="4"/>
<path d="M205.25 102H138.75C136.127 102 134 104.015 134 106.5V187.5C134 189.985 136.127 192 138.75 192H205.25C207.873 192 210 189.985 210 187.5V106.5C210 104.015 207.873 102 205.25 102Z" fill="#0A0A0A" stroke="#22C55E" stroke-width="1.92"/>
<path d="M200 112H144C142.895 112 142 112.895 142 114V125C142 126.105 142.895 127 144 127H200C201.105 127 202 126.105 202 125V114C202 112.895 201.105 112 200 112Z" stroke="#22C55E" stroke-width="1.5"/>
<path d="M200 137H144C142.895 137 142 137.895 142 139V150C142 151.105 142.895 152 144 152H200C201.105 152 202 151.105 202 150V139C202 137.895 201.105 137 200 137Z" stroke="#22C55E" stroke-width="1.5"/>
<path d="M182 162H162C159.239 162 157 164.239 157 167V182C157 184.761 159.239 187 162 187H182C184.761 187 187 184.761 187 182V167C187 164.239 184.761 162 182 162Z" fill="#22C55E"/>
<path d="M162 162V152C162 145 182 145 182 152V162" stroke="#22C55E" stroke-width="3"/>
<path d="M140.813 211.104V207.486H150.159V216.041C149.251 216.92 147.933 217.696 146.204 218.37C144.485 219.034 142.742 219.366 140.975 219.366C138.729 219.366 136.771 218.897 135.101 217.96C133.431 217.013 132.176 215.665 131.336 213.917C130.496 212.159 130.076 210.25 130.076 208.189C130.076 205.953 130.545 203.966 131.482 202.228C132.42 200.489 133.792 199.156 135.599 198.229C136.976 197.516 138.689 197.159 140.74 197.159C143.406 197.159 145.486 197.721 146.98 198.844C148.484 199.957 149.451 201.5 149.881 203.473L145.574 204.278C145.271 203.224 144.7 202.394 143.86 201.788C143.03 201.173 141.99 200.865 140.74 200.865C138.846 200.865 137.337 201.466 136.214 202.667C135.101 203.868 134.544 205.65 134.544 208.014C134.544 210.562 135.11 212.477 136.243 213.756C137.376 215.025 138.86 215.66 140.696 215.66C141.604 215.66 142.513 215.484 143.421 215.133C144.339 214.771 145.125 214.337 145.779 213.829V211.104H140.813ZM154.158 197.525H162.083C163.87 197.525 165.232 197.662 166.17 197.936C167.43 198.307 168.509 198.966 169.407 199.913C170.306 200.86 170.989 202.022 171.458 203.399C171.927 204.767 172.161 206.456 172.161 208.468C172.161 210.235 171.941 211.759 171.502 213.038C170.965 214.601 170.198 215.865 169.202 216.832C168.45 217.564 167.435 218.136 166.155 218.546C165.198 218.849 163.919 219 162.317 219H154.158V197.525ZM158.494 201.158V215.382H161.731C162.942 215.382 163.816 215.313 164.354 215.177C165.057 215.001 165.638 214.703 166.097 214.283C166.565 213.863 166.946 213.175 167.239 212.218C167.532 211.251 167.679 209.938 167.679 208.277C167.679 206.617 167.532 205.343 167.239 204.454C166.946 203.565 166.536 202.872 166.009 202.374C165.481 201.876 164.812 201.539 164.002 201.363C163.396 201.227 162.21 201.158 160.442 201.158H158.494ZM175.853 219V197.525H182.811C185.447 197.525 187.166 197.633 187.967 197.848C189.197 198.17 190.228 198.873 191.058 199.957C191.888 201.031 192.303 202.423 192.303 204.132C192.303 205.45 192.063 206.559 191.585 207.457C191.106 208.355 190.496 209.063 189.754 209.581C189.021 210.089 188.274 210.426 187.513 210.592C186.478 210.797 184.979 210.899 183.016 210.899H180.188V219H175.853ZM180.188 201.158V207.252H182.562C184.271 207.252 185.413 207.14 185.989 206.915C186.565 206.69 187.015 206.339 187.337 205.86C187.669 205.382 187.835 204.825 187.835 204.19C187.835 203.409 187.605 202.765 187.146 202.257C186.688 201.749 186.106 201.432 185.403 201.305C184.886 201.207 183.846 201.158 182.283 201.158H180.188ZM195.877 219V197.525H205.003C207.298 197.525 208.963 197.721 209.998 198.111C211.043 198.492 211.878 199.176 212.503 200.162C213.128 201.148 213.44 202.276 213.44 203.546C213.44 205.157 212.967 206.49 212.02 207.545C211.072 208.59 209.656 209.249 207.771 209.522C208.709 210.069 209.48 210.67 210.086 211.324C210.701 211.979 211.526 213.141 212.562 214.811L215.184 219H209.998L206.863 214.327C205.75 212.657 204.988 211.607 204.578 211.178C204.168 210.738 203.733 210.44 203.274 210.284C202.815 210.118 202.088 210.035 201.092 210.035H200.213V219H195.877ZM200.213 206.607H203.421C205.501 206.607 206.8 206.52 207.317 206.344C207.835 206.168 208.24 205.865 208.533 205.436C208.826 205.006 208.973 204.469 208.973 203.824C208.973 203.102 208.777 202.521 208.387 202.081C208.006 201.632 207.464 201.349 206.761 201.231C206.409 201.183 205.354 201.158 203.597 201.158H200.213V206.607Z" fill="#22C55E"/>
<path d="M131 225H211V245H131V225Z" stroke="#22C55E" stroke-width="2"/>
<path d="M143.033 235.988L144.17 236.275C143.932 237.209 143.502 237.922 142.881 238.414C142.264 238.902 141.508 239.146 140.613 239.146C139.688 239.146 138.934 238.959 138.352 238.584C137.773 238.205 137.332 237.658 137.027 236.943C136.727 236.229 136.576 235.461 136.576 234.641C136.576 233.746 136.746 232.967 137.086 232.303C137.43 231.635 137.916 231.129 138.545 230.785C139.178 230.438 139.873 230.264 140.631 230.264C141.49 230.264 142.213 230.482 142.799 230.92C143.385 231.357 143.793 231.973 144.023 232.766L142.904 233.029C142.705 232.404 142.416 231.949 142.037 231.664C141.658 231.379 141.182 231.236 140.607 231.236C139.947 231.236 139.395 231.395 138.949 231.711C138.508 232.027 138.197 232.453 138.018 232.988C137.838 233.52 137.748 234.068 137.748 234.635C137.748 235.365 137.854 236.004 138.064 236.551C138.279 237.094 138.611 237.5 139.061 237.77C139.51 238.039 139.996 238.174 140.52 238.174C141.156 238.174 141.695 237.99 142.137 237.623C142.578 237.256 142.877 236.711 143.033 235.988ZM145.23 234.816C145.23 233.391 145.613 232.275 146.379 231.471C147.145 230.662 148.133 230.258 149.344 230.258C150.137 230.258 150.852 230.447 151.488 230.826C152.125 231.205 152.609 231.734 152.941 232.414C153.277 233.09 153.445 233.857 153.445 234.717C153.445 235.588 153.27 236.367 152.918 237.055C152.566 237.742 152.068 238.264 151.424 238.619C150.779 238.971 150.084 239.146 149.338 239.146C148.529 239.146 147.807 238.951 147.17 238.561C146.533 238.17 146.051 237.637 145.723 236.961C145.395 236.285 145.23 235.57 145.23 234.816ZM146.402 234.834C146.402 235.869 146.68 236.686 147.234 237.283C147.793 237.877 148.492 238.174 149.332 238.174C150.188 238.174 150.891 237.873 151.441 237.271C151.996 236.67 152.273 235.816 152.273 234.711C152.273 234.012 152.154 233.402 151.916 232.883C151.682 232.359 151.336 231.955 150.879 231.67C150.426 231.381 149.916 231.236 149.35 231.236C148.545 231.236 147.852 231.514 147.27 232.068C146.691 232.619 146.402 233.541 146.402 234.834ZM154.881 239V230.41H156.592L158.625 236.492C158.812 237.059 158.949 237.482 159.035 237.764C159.133 237.451 159.285 236.992 159.492 236.387L161.549 230.41H163.078V239H161.982V231.811L159.486 239H158.461L155.977 231.688V239H154.881ZM164.912 239V230.41H168.152C168.723 230.41 169.158 230.438 169.459 230.492C169.881 230.562 170.234 230.697 170.52 230.896C170.805 231.092 171.033 231.367 171.205 231.723C171.381 232.078 171.469 232.469 171.469 232.895C171.469 233.625 171.236 234.244 170.771 234.752C170.307 235.256 169.467 235.508 168.252 235.508H166.049V239H164.912ZM166.049 234.494H168.27C169.004 234.494 169.525 234.357 169.834 234.084C170.143 233.811 170.297 233.426 170.297 232.93C170.297 232.57 170.205 232.264 170.021 232.01C169.842 231.752 169.604 231.582 169.307 231.5C169.115 231.449 168.762 231.424 168.246 231.424H166.049V234.494ZM172.869 239V230.41H174.006V237.986H178.236V239H172.869ZM179.789 239V230.41H180.926V239H179.789ZM181.992 239L185.291 230.41H186.516L190.031 239H188.736L187.734 236.398H184.143L183.199 239H181.992ZM184.471 235.473H187.383L186.486 233.094C186.213 232.371 186.01 231.777 185.877 231.312C185.768 231.863 185.613 232.41 185.414 232.953L184.471 235.473ZM190.928 239V230.41H192.094L196.605 237.154V230.41H197.695V239H196.529L192.018 232.25V239H190.928ZM201.797 239V231.424H198.967V230.41H205.775V231.424H202.934V239H201.797Z" fill="#22C55E"/>
<path d="M68.7492 367.084H74.6229C75.9474 367.084 76.9571 367.185 77.652 367.388C78.5857 367.663 79.3855 368.151 80.0514 368.853C80.7173 369.555 81.224 370.417 81.5714 371.437C81.9188 372.451 82.0925 373.703 82.0925 375.194C82.0925 376.504 81.9297 377.633 81.604 378.581C81.2059 379.739 80.6377 380.677 79.8994 381.393C79.3421 381.936 78.5893 382.359 77.6411 382.663C76.9318 382.888 75.9836 383 74.7966 383H68.7492V367.084ZM71.9629 369.776V380.318H74.3623C75.2598 380.318 75.9076 380.268 76.3057 380.166C76.8269 380.036 77.2575 379.815 77.5977 379.504C77.9451 379.193 78.2274 378.683 78.4446 377.973C78.6617 377.257 78.7703 376.283 78.7703 375.053C78.7703 373.822 78.6617 372.878 78.4446 372.219C78.2274 371.56 77.9234 371.046 77.5326 370.677C77.1417 370.308 76.6459 370.058 76.0452 369.928C75.5964 369.827 74.717 369.776 73.4069 369.776H71.9629ZM99.1816 383H95.6856L94.2959 379.385H87.9337L86.6199 383H83.2108L89.4102 367.084H92.8085L99.1816 383ZM93.2645 376.703L91.0713 370.797L88.9216 376.703H93.2645ZM102.83 383V369.776H98.1067V367.084H110.755V369.776H106.043V383H102.83ZM125.543 383H122.047L120.657 379.385H114.295L112.981 383H109.572L115.771 367.084H119.169L125.543 383ZM119.625 376.703L117.432 370.797L115.283 376.703H119.625ZM132.621 383V367.084H137.778C139.733 367.084 141.007 367.163 141.6 367.322C142.512 367.561 143.276 368.082 143.891 368.886C144.506 369.682 144.814 370.713 144.814 371.98C144.814 372.957 144.637 373.779 144.282 374.445C143.927 375.111 143.475 375.635 142.925 376.019C142.382 376.395 141.828 376.645 141.264 376.768C140.496 376.92 139.385 376.996 137.93 376.996H135.835V383H132.621ZM135.835 369.776V374.293H137.594C138.861 374.293 139.707 374.209 140.134 374.043C140.562 373.876 140.894 373.616 141.133 373.261C141.379 372.907 141.502 372.494 141.502 372.023C141.502 371.444 141.332 370.967 140.992 370.59C140.652 370.214 140.221 369.979 139.7 369.885C139.317 369.812 138.546 369.776 137.388 369.776H135.835ZM147.463 383V367.084H154.227C155.928 367.084 157.162 367.228 157.929 367.518C158.704 367.8 159.323 368.307 159.786 369.038C160.249 369.769 160.481 370.605 160.481 371.546C160.481 372.74 160.13 373.728 159.428 374.51C158.725 375.284 157.676 375.773 156.279 375.975C156.974 376.381 157.546 376.826 157.994 377.311C158.45 377.796 159.062 378.657 159.829 379.895L161.773 383H157.929L155.606 379.537C154.781 378.299 154.216 377.521 153.912 377.202C153.608 376.877 153.286 376.656 152.946 376.54C152.606 376.417 152.066 376.355 151.328 376.355H150.677V383H147.463ZM150.677 373.815H153.054C154.596 373.815 155.559 373.75 155.942 373.619C156.326 373.489 156.626 373.265 156.844 372.946C157.061 372.628 157.169 372.23 157.169 371.752C157.169 371.216 157.024 370.786 156.735 370.46C156.453 370.127 156.051 369.917 155.53 369.83C155.269 369.794 154.488 369.776 153.185 369.776H150.677V373.815ZM162.869 375.139C162.869 373.518 163.112 372.157 163.597 371.057C163.959 370.247 164.451 369.519 165.073 368.875C165.703 368.231 166.391 367.753 167.136 367.442C168.128 367.022 169.271 366.812 170.567 366.812C172.912 366.812 174.787 367.54 176.191 368.994C177.602 370.449 178.308 372.472 178.308 375.063C178.308 377.633 177.609 379.645 176.213 381.1C174.816 382.548 172.948 383.271 170.61 383.271C168.243 383.271 166.362 382.551 164.965 381.111C163.568 379.663 162.869 377.673 162.869 375.139ZM166.181 375.031C166.181 376.833 166.597 378.201 167.429 379.135C168.262 380.061 169.318 380.525 170.599 380.525C171.881 380.525 172.93 380.065 173.748 379.146C174.573 378.219 174.986 376.833 174.986 374.987C174.986 373.163 174.584 371.803 173.781 370.905C172.984 370.008 171.924 369.559 170.599 369.559C169.275 369.559 168.207 370.015 167.397 370.927C166.586 371.832 166.181 373.2 166.181 375.031ZM184.41 383V369.776H179.687V367.084H192.335V369.776H187.623V383H184.41ZM194.42 383V367.084H206.222V369.776H197.634V373.305H205.624V375.986H197.634V380.318H206.526V383H194.42ZM219.435 377.148L222.551 378.136C222.073 379.873 221.277 381.165 220.162 382.012C219.055 382.852 217.647 383.271 215.939 383.271C213.825 383.271 212.088 382.551 210.727 381.111C209.366 379.663 208.686 377.687 208.686 375.183C208.686 372.534 209.37 370.478 210.738 369.016C212.106 367.547 213.905 366.812 216.134 366.812C218.081 366.812 219.663 367.388 220.879 368.538C221.602 369.219 222.145 370.196 222.507 371.47L219.326 372.23C219.138 371.405 218.743 370.753 218.143 370.276C217.549 369.798 216.825 369.559 215.971 369.559C214.791 369.559 213.832 369.982 213.094 370.829C212.363 371.676 211.997 373.048 211.997 374.944C211.997 376.956 212.359 378.389 213.083 379.243C213.807 380.098 214.748 380.525 215.906 380.525C216.76 380.525 217.495 380.253 218.11 379.71C218.725 379.167 219.167 378.313 219.435 377.148ZM228.902 383V369.776H224.179V367.084H236.828V369.776H232.116V383H228.902ZM238.814 383V367.084H242.028V383H238.814ZM244.449 375.139C244.449 373.518 244.692 372.157 245.177 371.057C245.539 370.247 246.031 369.519 246.653 368.875C247.283 368.231 247.971 367.753 248.716 367.442C249.708 367.022 250.851 366.812 252.147 366.812C254.492 366.812 256.367 367.54 257.771 368.994C259.182 370.449 259.888 372.472 259.888 375.063C259.888 377.633 259.19 379.645 257.793 381.1C256.396 382.548 254.528 383.271 252.19 383.271C249.824 383.271 247.942 382.551 246.545 381.111C245.148 379.663 244.449 377.673 244.449 375.139ZM247.761 375.031C247.761 376.833 248.177 378.201 249.009 379.135C249.842 380.061 250.898 380.525 252.18 380.525C253.461 380.525 254.51 380.065 255.328 379.146C256.153 378.219 256.566 376.833 256.566 374.987C256.566 373.163 256.164 371.803 255.361 370.905C254.564 370.008 253.504 369.559 252.18 369.559C250.855 369.559 249.787 370.015 248.977 370.927C248.166 371.832 247.761 373.2 247.761 375.031ZM262.439 383V367.084H265.566L272.081 377.713V367.084H275.066V383H271.842L265.425 372.621V383H262.439Z" fill="#22C55E"/>
</svg>
