<svg width="319" height="352" viewBox="0 0 319 352" fill="none" xmlns="http://www.w3.org/2000/svg">
<path d="M158 3L282 70V204L158 271L34 204V70L158 3Z" stroke="#22C55E" stroke-opacity="0.4" stroke-width="4"/>
<path d="M160 26L265 81.5V192.5L160 248L55 192.5V81.5L160 26Z" fill="#0A0A0A" stroke="#22C55E" stroke-width="2"/>
<path d="M168 56H152C150.895 56 150 56.8954 150 58V114C150 115.105 150.895 116 152 116H168C169.105 116 170 115.105 170 114V58C170 56.8954 169.105 56 168 56Z" fill="#22C55E"/>
<path d="M188 76H132C130.895 76 130 76.8954 130 78V94C130 95.1046 130.895 96 132 96H188C189.105 96 190 95.1046 190 94V78C190 76.8954 189.105 76 188 76Z" fill="#22C55E"/>
<path d="M215 116H105C102.239 116 100 118.239 100 121V181C100 183.761 102.239 186 105 186H215C217.761 186 220 183.761 220 181V121C220 118.239 217.761 116 215 116Z" stroke="#22C55E" stroke-width="2"/>
<path d="M100 151H115L122 131L130 171L138 141L145 151H155L165 131L175 171L185 151H195H210L220 131" stroke="#22C55E" stroke-width="2"/>
<path d="M201 141.25H181C178.239 141.25 176 143.489 176 146.25V161.25C176 164.011 178.239 166.25 181 166.25H201C203.761 166.25 206 164.011 206 161.25V146.25C206 143.489 203.761 141.25 201 141.25Z" fill="#22C55E"/>
<path d="M181 141.25V131.25C181 124.25 201 124.25 201 131.25V141.25" stroke="#22C55E" stroke-width="3"/>
<path d="M116.611 213V191.525H120.947V199.978H129.443V191.525H133.779V213H129.443V203.61H120.947V213H116.611ZM138.145 213V191.525H142.48V213H138.145ZM146.626 213V191.525H153.584C156.221 191.525 157.939 191.633 158.74 191.848C159.971 192.17 161.001 192.873 161.831 193.957C162.661 195.031 163.076 196.423 163.076 198.132C163.076 199.45 162.837 200.559 162.358 201.457C161.88 202.355 161.27 203.063 160.527 203.581C159.795 204.089 159.048 204.426 158.286 204.592C157.251 204.797 155.752 204.899 153.789 204.899H150.962V213H146.626ZM150.962 195.158V201.252H153.335C155.044 201.252 156.187 201.14 156.763 200.915C157.339 200.69 157.788 200.339 158.11 199.86C158.442 199.382 158.608 198.825 158.608 198.19C158.608 197.409 158.379 196.765 157.92 196.257C157.461 195.749 156.88 195.432 156.177 195.305C155.659 195.207 154.619 195.158 153.057 195.158H150.962ZM183.774 213H179.058L177.183 208.122H168.599L166.826 213H162.227L170.591 191.525H175.176L183.774 213ZM175.791 204.504L172.832 196.535L169.932 204.504H175.791ZM205.454 213H200.737L198.862 208.122H190.278L188.506 213H183.906L192.271 191.525H196.855L205.454 213ZM197.471 204.504L194.512 196.535L191.611 204.504H197.471Z" fill="#22C55E"/>
<path d="M72 146C80.6667 146 90 146 100 146" stroke="#22C55E" stroke-width="1.5" stroke-dasharray="4 2"/>
<path d="M220 146C230 146 239.333 146 248 146" stroke="#22C55E" stroke-width="1.5" stroke-dasharray="4 2"/>
<path d="M95 286H25C22.2386 286 20 288.239 20 291V311C20 313.761 22.2386 316 25 316H95C97.7614 316 100 313.761 100 311V291C100 288.239 97.7614 286 95 286Z" stroke="#22C55E" stroke-width="2"/>
<path d="M35.0215 305V296.41H38.2617C38.832 296.41 39.2676 296.438 39.5684 296.492C39.9902 296.562 40.3438 296.697 40.6289 296.896C40.9141 297.092 41.1426 297.367 41.3145 297.723C41.4902 298.078 41.5781 298.469 41.5781 298.895C41.5781 299.625 41.3457 300.244 40.8809 300.752C40.416 301.256 39.5762 301.508 38.3613 301.508H36.1582V305H35.0215ZM36.1582 300.494H38.3789C39.1133 300.494 39.6348 300.357 39.9434 300.084C40.252 299.811 40.4062 299.426 40.4062 298.93C40.4062 298.57 40.3145 298.264 40.1309 298.01C39.9512 297.752 39.7129 297.582 39.416 297.5C39.2246 297.449 38.8711 297.424 38.3555 297.424H36.1582V300.494ZM43.043 305V296.41H46.8516C47.6172 296.41 48.1992 296.488 48.5977 296.645C48.9961 296.797 49.3145 297.068 49.5527 297.459C49.791 297.85 49.9102 298.281 49.9102 298.754C49.9102 299.363 49.7129 299.877 49.3184 300.295C48.9238 300.713 48.3145 300.979 47.4902 301.092C47.791 301.236 48.0195 301.379 48.1758 301.52C48.5078 301.824 48.8223 302.205 49.1191 302.662L50.6133 305H49.1836L48.0469 303.213C47.7148 302.697 47.4414 302.303 47.2266 302.029C47.0117 301.756 46.8184 301.564 46.6465 301.455C46.4785 301.346 46.3066 301.27 46.1309 301.227C46.002 301.199 45.791 301.186 45.498 301.186H44.1797V305H43.043ZM44.1797 300.201H46.623C47.1426 300.201 47.5488 300.148 47.8418 300.043C48.1348 299.934 48.3574 299.762 48.5098 299.527C48.6621 299.289 48.7383 299.031 48.7383 298.754C48.7383 298.348 48.5898 298.014 48.293 297.752C48 297.49 47.5352 297.359 46.8984 297.359H44.1797V300.201ZM51.8906 305V296.41H53.0273V305H51.8906ZM57.4922 305L54.1641 296.41H55.3945L57.627 302.65C57.8066 303.15 57.957 303.619 58.0781 304.057C58.2109 303.588 58.3652 303.119 58.541 302.65L60.8613 296.41H62.0215L58.6582 305H57.4922ZM61.207 305L64.5059 296.41H65.7305L69.2461 305H67.9512L66.9492 302.398H63.3574L62.4141 305H61.207ZM63.6855 301.473H66.5977L65.7012 299.094C65.4277 298.371 65.2246 297.777 65.0918 297.312C64.9824 297.863 64.8281 298.41 64.6289 298.953L63.6855 301.473ZM76.2832 301.988L77.4199 302.275C77.1816 303.209 76.752 303.922 76.1309 304.414C75.5137 304.902 74.7578 305.146 73.8633 305.146C72.9375 305.146 72.1836 304.959 71.6016 304.584C71.0234 304.205 70.582 303.658 70.2773 302.943C69.9766 302.229 69.8262 301.461 69.8262 300.641C69.8262 299.746 69.9961 298.967 70.3359 298.303C70.6797 297.635 71.166 297.129 71.7949 296.785C72.4277 296.438 73.123 296.264 73.8809 296.264C74.7402 296.264 75.4629 296.482 76.0488 296.92C76.6348 297.357 77.043 297.973 77.2734 298.766L76.1543 299.029C75.9551 298.404 75.666 297.949 75.2871 297.664C74.9082 297.379 74.4316 297.236 73.8574 297.236C73.1973 297.236 72.6445 297.395 72.1992 297.711C71.7578 298.027 71.4473 298.453 71.2676 298.988C71.0879 299.52 70.998 300.068 70.998 300.635C70.998 301.365 71.1035 302.004 71.3145 302.551C71.5293 303.094 71.8613 303.5 72.3105 303.77C72.7598 304.039 73.2461 304.174 73.7695 304.174C74.4062 304.174 74.9453 303.99 75.3867 303.623C75.8281 303.256 76.127 302.711 76.2832 301.988ZM81.2461 305V301.361L77.9355 296.41H79.3184L81.0117 299C81.3242 299.484 81.6152 299.969 81.8848 300.453C82.1426 300.004 82.4551 299.498 82.8223 298.936L84.4863 296.41H85.8105L82.3828 301.361V305H81.2461Z" fill="#22C55E"/>
<path d="M195 286H125C122.239 286 120 288.239 120 291V311C120 313.761 122.239 316 125 316H195C197.761 316 200 313.761 200 311V291C200 288.239 197.761 286 195 286Z" stroke="#22C55E" stroke-width="2"/>
<path d="M130.188 302.24L131.26 302.146C131.311 302.576 131.428 302.93 131.611 303.207C131.799 303.48 132.088 303.703 132.479 303.875C132.869 304.043 133.309 304.127 133.797 304.127C134.23 304.127 134.613 304.062 134.945 303.934C135.277 303.805 135.523 303.629 135.684 303.406C135.848 303.18 135.93 302.934 135.93 302.668C135.93 302.398 135.852 302.164 135.695 301.965C135.539 301.762 135.281 301.592 134.922 301.455C134.691 301.365 134.182 301.227 133.393 301.039C132.604 300.848 132.051 300.668 131.734 300.5C131.324 300.285 131.018 300.02 130.814 299.703C130.615 299.383 130.516 299.025 130.516 298.631C130.516 298.197 130.639 297.793 130.885 297.418C131.131 297.039 131.49 296.752 131.963 296.557C132.436 296.361 132.961 296.264 133.539 296.264C134.176 296.264 134.736 296.367 135.221 296.574C135.709 296.777 136.084 297.078 136.346 297.477C136.607 297.875 136.748 298.326 136.768 298.83L135.678 298.912C135.619 298.369 135.42 297.959 135.08 297.682C134.744 297.404 134.246 297.266 133.586 297.266C132.898 297.266 132.396 297.393 132.08 297.646C131.768 297.896 131.611 298.199 131.611 298.555C131.611 298.863 131.723 299.117 131.945 299.316C132.164 299.516 132.734 299.721 133.656 299.932C134.582 300.139 135.217 300.32 135.561 300.477C136.061 300.707 136.43 301 136.668 301.355C136.906 301.707 137.025 302.113 137.025 302.574C137.025 303.031 136.895 303.463 136.633 303.869C136.371 304.271 135.994 304.586 135.502 304.812C135.014 305.035 134.463 305.146 133.85 305.146C133.072 305.146 132.42 305.033 131.893 304.807C131.369 304.58 130.957 304.24 130.656 303.787C130.359 303.33 130.203 302.814 130.188 302.24ZM138.602 305V296.41H144.812V297.424H139.738V300.055H144.49V301.062H139.738V303.986H145.012V305H138.602ZM152.711 301.988L153.848 302.275C153.609 303.209 153.18 303.922 152.559 304.414C151.941 304.902 151.186 305.146 150.291 305.146C149.365 305.146 148.611 304.959 148.029 304.584C147.451 304.205 147.01 303.658 146.705 302.943C146.404 302.229 146.254 301.461 146.254 300.641C146.254 299.746 146.424 298.967 146.764 298.303C147.107 297.635 147.594 297.129 148.223 296.785C148.855 296.438 149.551 296.264 150.309 296.264C151.168 296.264 151.891 296.482 152.477 296.92C153.062 297.357 153.471 297.973 153.701 298.766L152.582 299.029C152.383 298.404 152.094 297.949 151.715 297.664C151.336 297.379 150.859 297.236 150.285 297.236C149.625 297.236 149.072 297.395 148.627 297.711C148.186 298.027 147.875 298.453 147.695 298.988C147.516 299.52 147.426 300.068 147.426 300.635C147.426 301.365 147.531 302.004 147.742 302.551C147.957 303.094 148.289 303.5 148.738 303.77C149.188 304.039 149.674 304.174 150.197 304.174C150.834 304.174 151.373 303.99 151.814 303.623C152.256 303.256 152.555 302.711 152.711 301.988ZM160.891 296.41H162.027V301.373C162.027 302.236 161.93 302.922 161.734 303.43C161.539 303.938 161.186 304.352 160.674 304.672C160.166 304.988 159.498 305.146 158.67 305.146C157.865 305.146 157.207 305.008 156.695 304.73C156.184 304.453 155.818 304.053 155.6 303.529C155.381 303.002 155.271 302.283 155.271 301.373V296.41H156.408V301.367C156.408 302.113 156.477 302.664 156.613 303.02C156.754 303.371 156.992 303.643 157.328 303.834C157.668 304.025 158.082 304.121 158.57 304.121C159.406 304.121 160.002 303.932 160.357 303.553C160.713 303.174 160.891 302.445 160.891 301.367V296.41ZM163.943 305V296.41H167.752C168.518 296.41 169.1 296.488 169.498 296.645C169.896 296.797 170.215 297.068 170.453 297.459C170.691 297.85 170.811 298.281 170.811 298.754C170.811 299.363 170.613 299.877 170.219 300.295C169.824 300.713 169.215 300.979 168.391 301.092C168.691 301.236 168.92 301.379 169.076 301.52C169.408 301.824 169.723 302.205 170.02 302.662L171.514 305H170.084L168.947 303.213C168.615 302.697 168.342 302.303 168.127 302.029C167.912 301.756 167.719 301.564 167.547 301.455C167.379 301.346 167.207 301.27 167.031 301.227C166.902 301.199 166.691 301.186 166.398 301.186H165.08V305H163.943ZM165.08 300.201H167.523C168.043 300.201 168.449 300.148 168.742 300.043C169.035 299.934 169.258 299.762 169.41 299.527C169.562 299.289 169.639 299.031 169.639 298.754C169.639 298.348 169.49 298.014 169.193 297.752C168.9 297.49 168.436 297.359 167.799 297.359H165.08V300.201ZM172.791 305V296.41H173.928V305H172.791ZM178.123 305V297.424H175.293V296.41H182.102V297.424H179.26V305H178.123ZM185.693 305V301.361L182.383 296.41H183.766L185.459 299C185.771 299.484 186.062 299.969 186.332 300.453C186.59 300.004 186.902 299.498 187.27 298.936L188.934 296.41H190.258L186.83 301.361V305H185.693Z" fill="#22C55E"/>
<path d="M295 286H225C222.239 286 220 288.239 220 291V311C220 313.761 222.239 316 225 316H295C297.761 316 300 313.761 300 311V291C300 288.239 297.761 286 295 286Z" stroke="#22C55E" stroke-width="2"/>
<path d="M232.803 302.49L233.75 302.729C233.551 303.507 233.193 304.102 232.676 304.512C232.161 304.919 231.532 305.122 230.786 305.122C230.015 305.122 229.386 304.966 228.901 304.653C228.42 304.338 228.052 303.882 227.798 303.286C227.547 302.69 227.422 302.051 227.422 301.367C227.422 300.622 227.563 299.972 227.847 299.419C228.133 298.862 228.538 298.441 229.062 298.154C229.59 297.865 230.169 297.72 230.801 297.72C231.517 297.72 232.119 297.902 232.607 298.267C233.096 298.631 233.436 299.144 233.628 299.805L232.695 300.024C232.529 299.504 232.288 299.124 231.973 298.887C231.657 298.649 231.26 298.53 230.781 298.53C230.231 298.53 229.771 298.662 229.399 298.926C229.032 299.189 228.773 299.544 228.623 299.99C228.473 300.433 228.398 300.89 228.398 301.362C228.398 301.971 228.486 302.503 228.662 302.959C228.841 303.411 229.118 303.75 229.492 303.975C229.867 304.199 230.272 304.312 230.708 304.312C231.239 304.312 231.688 304.159 232.056 303.853C232.424 303.547 232.673 303.092 232.803 302.49ZM234.634 301.514C234.634 300.326 234.953 299.396 235.591 298.726C236.229 298.052 237.052 297.715 238.062 297.715C238.722 297.715 239.318 297.873 239.849 298.188C240.379 298.504 240.783 298.945 241.06 299.512C241.34 300.075 241.479 300.715 241.479 301.431C241.479 302.157 241.333 302.806 241.04 303.379C240.747 303.952 240.332 304.386 239.795 304.683C239.258 304.976 238.678 305.122 238.057 305.122C237.383 305.122 236.781 304.959 236.25 304.634C235.719 304.308 235.317 303.864 235.044 303.301C234.771 302.738 234.634 302.142 234.634 301.514ZM235.61 301.528C235.61 302.391 235.841 303.071 236.304 303.569C236.769 304.064 237.352 304.312 238.052 304.312C238.765 304.312 239.351 304.061 239.81 303.56C240.272 303.058 240.503 302.347 240.503 301.426C240.503 300.843 240.404 300.335 240.205 299.902C240.01 299.466 239.722 299.129 239.341 298.892C238.963 298.651 238.538 298.53 238.066 298.53C237.396 298.53 236.818 298.761 236.333 299.224C235.851 299.683 235.61 300.451 235.61 301.528ZM242.676 305V297.842H244.102L245.796 302.91C245.952 303.382 246.066 303.735 246.138 303.97C246.219 303.709 246.346 303.327 246.519 302.822L248.232 297.842H249.507V305H248.594V299.009L246.514 305H245.659L243.589 298.906V305H242.676ZM251.035 305V297.842H253.735C254.211 297.842 254.574 297.865 254.824 297.91C255.176 297.969 255.47 298.081 255.708 298.247C255.946 298.41 256.136 298.639 256.279 298.936C256.426 299.232 256.499 299.557 256.499 299.912C256.499 300.521 256.305 301.037 255.918 301.46C255.531 301.88 254.831 302.09 253.818 302.09H251.982V305H251.035ZM251.982 301.245H253.833C254.445 301.245 254.88 301.131 255.137 300.903C255.394 300.675 255.522 300.355 255.522 299.941C255.522 299.642 255.446 299.386 255.293 299.175C255.143 298.96 254.945 298.818 254.697 298.75C254.538 298.708 254.243 298.687 253.813 298.687H251.982V301.245ZM257.666 305V297.842H258.613V304.155H262.139V305H257.666ZM263.433 305V297.842H264.38V305H263.433ZM265.269 305L268.018 297.842H269.038L271.968 305H270.889L270.054 302.832H267.061L266.274 305H265.269ZM267.334 302.061H269.761L269.014 300.078C268.786 299.476 268.617 298.981 268.506 298.594C268.415 299.053 268.286 299.508 268.12 299.961L267.334 302.061ZM272.715 305V297.842H273.687L277.446 303.462V297.842H278.354V305H277.383L273.623 299.375V305H272.715ZM285.059 302.49L286.006 302.729C285.807 303.507 285.449 304.102 284.932 304.512C284.417 304.919 283.787 305.122 283.042 305.122C282.271 305.122 281.642 304.966 281.157 304.653C280.675 304.338 280.308 303.882 280.054 303.286C279.803 302.69 279.678 302.051 279.678 301.367C279.678 300.622 279.819 299.972 280.103 299.419C280.389 298.862 280.794 298.441 281.318 298.154C281.846 297.865 282.425 297.72 283.057 297.72C283.773 297.72 284.375 297.902 284.863 298.267C285.352 298.631 285.692 299.144 285.884 299.805L284.951 300.024C284.785 299.504 284.544 299.124 284.229 298.887C283.913 298.649 283.516 298.53 283.037 298.53C282.487 298.53 282.026 298.662 281.655 298.926C281.287 299.189 281.029 299.544 280.879 299.99C280.729 300.433 280.654 300.89 280.654 301.362C280.654 301.971 280.742 302.503 280.918 302.959C281.097 303.411 281.374 303.75 281.748 303.975C282.122 304.199 282.528 304.312 282.964 304.312C283.494 304.312 283.944 304.159 284.312 303.853C284.679 303.547 284.928 303.092 285.059 302.49ZM287.197 305V297.842H292.373V298.687H288.145V300.879H292.104V301.719H288.145V304.155H292.539V305H287.197Z" fill="#22C55E"/>
<path d="M1.55176 348V335.115H5.72656C7.30859 335.115 8.33984 335.18 8.82031 335.309C9.55859 335.502 10.1768 335.924 10.6748 336.574C11.1729 337.219 11.4219 338.054 11.4219 339.079C11.4219 339.87 11.2783 340.535 10.9912 341.074C10.7041 341.613 10.3379 342.038 9.89258 342.349C9.45312 342.653 9.00488 342.855 8.54785 342.955C7.92676 343.078 7.02734 343.14 5.84961 343.14H4.15332V348H1.55176ZM4.15332 337.295V340.951H5.57715C6.60254 340.951 7.28809 340.884 7.63379 340.749C7.97949 340.614 8.24902 340.403 8.44238 340.116C8.6416 339.829 8.74121 339.495 8.74121 339.114C8.74121 338.646 8.60352 338.259 8.32812 337.954C8.05273 337.649 7.7041 337.459 7.28223 337.383C6.97168 337.324 6.34766 337.295 5.41016 337.295H4.15332ZM13.5664 348V335.115H19.042C20.4189 335.115 21.418 335.232 22.0391 335.467C22.666 335.695 23.167 336.105 23.542 336.697C23.917 337.289 24.1045 337.966 24.1045 338.728C24.1045 339.694 23.8203 340.494 23.252 341.127C22.6836 341.754 21.834 342.149 20.7031 342.313C21.2656 342.642 21.7285 343.002 22.0918 343.395C22.4609 343.787 22.9561 344.484 23.5771 345.486L25.1504 348H22.0391L20.1582 345.196C19.4902 344.194 19.0332 343.564 18.7871 343.307C18.541 343.043 18.2803 342.864 18.0049 342.771C17.7295 342.671 17.293 342.621 16.6953 342.621H16.168V348H13.5664ZM16.168 340.564H18.0928C19.3408 340.564 20.1201 340.512 20.4307 340.406C20.7412 340.301 20.9844 340.119 21.1602 339.861C21.3359 339.604 21.4238 339.281 21.4238 338.895C21.4238 338.461 21.3066 338.112 21.0723 337.849C20.8438 337.579 20.5186 337.409 20.0967 337.339C19.8857 337.31 19.2529 337.295 18.1982 337.295H16.168V340.564ZM26.0381 341.637C26.0381 340.324 26.2344 339.223 26.627 338.332C26.9199 337.676 27.3184 337.087 27.8223 336.565C28.332 336.044 28.8887 335.657 29.4922 335.405C30.2949 335.065 31.2207 334.896 32.2695 334.896C34.168 334.896 35.6855 335.484 36.8223 336.662C37.9648 337.84 38.5361 339.478 38.5361 341.575C38.5361 343.655 37.9707 345.284 36.8398 346.462C35.709 347.634 34.1973 348.22 32.3047 348.22C30.3887 348.22 28.8652 347.637 27.7344 346.471C26.6035 345.299 26.0381 343.688 26.0381 341.637ZM28.7188 341.549C28.7188 343.008 29.0557 344.115 29.7295 344.871C30.4033 345.621 31.2588 345.996 32.2959 345.996C33.333 345.996 34.1826 345.624 34.8447 344.88C35.5127 344.13 35.8467 343.008 35.8467 341.514C35.8467 340.037 35.5215 338.936 34.8711 338.209C34.2266 337.482 33.3682 337.119 32.2959 337.119C31.2236 337.119 30.3594 337.488 29.7031 338.227C29.0469 338.959 28.7188 340.066 28.7188 341.549ZM43.4756 348V337.295H39.6523V335.115H49.8916V337.295H46.0771V348H43.4756ZM51.5791 348V335.115H61.1328V337.295H54.1807V340.151H60.6494V342.322H54.1807V345.829H61.3789V348H51.5791ZM71.8291 343.263L74.3516 344.062C73.9648 345.469 73.3203 346.515 72.418 347.2C71.5215 347.88 70.3818 348.22 68.999 348.22C67.2881 348.22 65.8818 347.637 64.7803 346.471C63.6787 345.299 63.1279 343.699 63.1279 341.672C63.1279 339.527 63.6816 337.863 64.7891 336.68C65.8965 335.49 67.3525 334.896 69.1572 334.896C70.7334 334.896 72.0137 335.361 72.998 336.293C73.584 336.844 74.0234 337.635 74.3164 338.666L71.7412 339.281C71.5889 338.613 71.2695 338.086 70.7832 337.699C70.3027 337.312 69.7168 337.119 69.0254 337.119C68.0703 337.119 67.2939 337.462 66.6963 338.147C66.1045 338.833 65.8086 339.943 65.8086 341.479C65.8086 343.107 66.1016 344.268 66.6875 344.959C67.2734 345.65 68.0352 345.996 68.9727 345.996C69.6641 345.996 70.2588 345.776 70.7568 345.337C71.2549 344.897 71.6123 344.206 71.8291 343.263ZM79.4932 348V337.295H75.6699V335.115H85.9092V337.295H82.0947V348H79.4932ZM87.5967 348V335.115H97.1504V337.295H90.1982V340.151H96.667V342.322H90.1982V345.829H97.3965V348H87.5967ZM99.5938 335.115H104.349C105.421 335.115 106.238 335.197 106.801 335.361C107.557 335.584 108.204 335.979 108.743 336.548C109.282 337.116 109.692 337.813 109.974 338.64C110.255 339.46 110.396 340.474 110.396 341.681C110.396 342.741 110.264 343.655 110 344.423C109.678 345.36 109.218 346.119 108.62 346.699C108.169 347.139 107.56 347.481 106.792 347.728C106.218 347.909 105.45 348 104.489 348H99.5938V335.115ZM102.195 337.295V345.829H104.138C104.864 345.829 105.389 345.788 105.711 345.706C106.133 345.601 106.481 345.422 106.757 345.17C107.038 344.918 107.267 344.505 107.442 343.931C107.618 343.351 107.706 342.562 107.706 341.566C107.706 340.57 107.618 339.806 107.442 339.272C107.267 338.739 107.021 338.323 106.704 338.024C106.388 337.726 105.986 337.523 105.5 337.418C105.137 337.336 104.425 337.295 103.364 337.295H102.195ZM117.629 348V335.115H120.23V340.187H125.328V335.115H127.93V348H125.328V342.366H120.23V348H117.629ZM130.628 348V335.115H140.182V337.295H133.229V340.151H139.698V342.322H133.229V345.829H140.428V348H130.628ZM154.253 348H151.423L150.298 345.073H145.147L144.084 348H141.324L146.343 335.115H149.094L154.253 348ZM149.463 342.902L147.688 338.121L145.947 342.902H149.463ZM155.712 348V335.221H158.313V345.829H164.782V348H155.712ZM168.21 348V337.295H164.387V335.115H174.626V337.295H170.812V348H168.21ZM176.322 348V335.115H178.924V340.187H184.021V335.115H186.623V348H184.021V342.366H178.924V348H176.322ZM194.252 348V335.115H196.854V348H194.252ZM199.367 348V335.115H201.898L207.172 343.72V335.115H209.589V348H206.979L201.784 339.598V348H199.367ZM212.366 348V335.115H221.199V337.295H214.968V340.345H220.347V342.524H214.968V348H212.366ZM222.825 341.637C222.825 340.324 223.021 339.223 223.414 338.332C223.707 337.676 224.105 337.087 224.609 336.565C225.119 336.044 225.676 335.657 226.279 335.405C227.082 335.065 228.008 334.896 229.057 334.896C230.955 334.896 232.473 335.484 233.609 336.662C234.752 337.84 235.323 339.478 235.323 341.575C235.323 343.655 234.758 345.284 233.627 346.462C232.496 347.634 230.984 348.22 229.092 348.22C227.176 348.22 225.652 347.637 224.521 346.471C223.391 345.299 222.825 343.688 222.825 341.637ZM225.506 341.549C225.506 343.008 225.843 344.115 226.517 344.871C227.19 345.621 228.046 345.996 229.083 345.996C230.12 345.996 230.97 345.624 231.632 344.88C232.3 344.13 232.634 343.008 232.634 341.514C232.634 340.037 232.309 338.936 231.658 338.209C231.014 337.482 230.155 337.119 229.083 337.119C228.011 337.119 227.146 337.488 226.49 338.227C225.834 338.959 225.506 340.066 225.506 341.549ZM237.371 348V335.115H242.847C244.224 335.115 245.223 335.232 245.844 335.467C246.471 335.695 246.972 336.105 247.347 336.697C247.722 337.289 247.909 337.966 247.909 338.728C247.909 339.694 247.625 340.494 247.057 341.127C246.488 341.754 245.639 342.149 244.508 342.313C245.07 342.642 245.533 343.002 245.896 343.395C246.266 343.787 246.761 344.484 247.382 345.486L248.955 348H245.844L243.963 345.196C243.295 344.194 242.838 343.564 242.592 343.307C242.346 343.043 242.085 342.864 241.81 342.771C241.534 342.671 241.098 342.621 240.5 342.621H239.973V348H237.371ZM239.973 340.564H241.897C243.146 340.564 243.925 340.512 244.235 340.406C244.546 340.301 244.789 340.119 244.965 339.861C245.141 339.604 245.229 339.281 245.229 338.895C245.229 338.461 245.111 338.112 244.877 337.849C244.648 337.579 244.323 337.409 243.901 337.339C243.69 337.31 243.058 337.295 242.003 337.295H239.973V340.564ZM250.335 348V335.115H254.229L256.566 343.904L258.878 335.115H262.78V348H260.363V337.857L257.806 348H255.301L252.752 337.857V348H250.335ZM276.983 348H274.153L273.028 345.073H267.878L266.814 348H264.055L269.073 335.115H271.824L276.983 348ZM272.193 342.902L270.418 338.121L268.678 342.902H272.193ZM279.937 348V337.295H276.113V335.115H286.353V337.295H282.538V348H279.937ZM287.961 348V335.115H290.562V348H287.961ZM292.522 341.637C292.522 340.324 292.719 339.223 293.111 338.332C293.404 337.676 293.803 337.087 294.307 336.565C294.816 336.044 295.373 335.657 295.977 335.405C296.779 335.065 297.705 334.896 298.754 334.896C300.652 334.896 302.17 335.484 303.307 336.662C304.449 337.84 305.021 339.478 305.021 341.575C305.021 343.655 304.455 345.284 303.324 346.462C302.193 347.634 300.682 348.22 298.789 348.22C296.873 348.22 295.35 347.637 294.219 346.471C293.088 345.299 292.522 343.688 292.522 341.637ZM295.203 341.549C295.203 343.008 295.54 344.115 296.214 344.871C296.888 345.621 297.743 345.996 298.78 345.996C299.817 345.996 300.667 345.624 301.329 344.88C301.997 344.13 302.331 343.008 302.331 341.514C302.331 340.037 302.006 338.936 301.355 338.209C300.711 337.482 299.853 337.119 298.78 337.119C297.708 337.119 296.844 337.488 296.188 338.227C295.531 338.959 295.203 340.066 295.203 341.549ZM307.086 348V335.115H309.617L314.891 343.72V335.115H317.308V348H314.697L309.503 339.598V348H307.086Z" fill="#22C55E"/>
</svg>
