<svg width="322" height="349" viewBox="0 0 322 349" fill="none" xmlns="http://www.w3.org/2000/svg">
<path d="M161 11L261 61V161C261 221 221 271 161 291C101 271 61 221 61 161V61L161 11Z" fill="#0A0A0A" stroke="#22C55E" stroke-width="4"/>
<path d="M161 41L236 81V161C236 206 206 246 161 261C116 246 86 206 86 161V81L161 41Z" stroke="#16A34A" stroke-width="2" stroke-dasharray="4 2"/>
<path d="M115.609 96.5469L120.109 96.1094C120.38 97.6198 120.927 98.7292 121.75 99.4375C122.583 100.146 123.703 100.5 125.109 100.5C126.599 100.5 127.719 100.188 128.469 99.5625C129.229 98.9271 129.609 98.1875 129.609 97.3438C129.609 96.8021 129.448 96.3438 129.125 95.9688C128.812 95.5833 128.26 95.25 127.469 94.9688C126.927 94.7812 125.693 94.4479 123.766 93.9688C121.286 93.3542 119.547 92.599 118.547 91.7031C117.141 90.4427 116.438 88.9062 116.438 87.0938C116.438 85.9271 116.766 84.8385 117.422 83.8281C118.089 82.8073 119.042 82.0312 120.281 81.5C121.531 80.9688 123.036 80.7031 124.797 80.7031C127.672 80.7031 129.833 81.3333 131.281 82.5938C132.74 83.8542 133.505 85.5365 133.578 87.6406L128.953 87.8438C128.755 86.6667 128.328 85.8229 127.672 85.3125C127.026 84.7917 126.052 84.5312 124.75 84.5312C123.406 84.5312 122.354 84.8073 121.594 85.3594C121.104 85.7135 120.859 86.1875 120.859 86.7812C120.859 87.3229 121.089 87.7865 121.547 88.1719C122.13 88.6615 123.547 89.1719 125.797 89.7031C128.047 90.2344 129.708 90.7865 130.781 91.3594C131.865 91.9219 132.708 92.6979 133.312 93.6875C133.927 94.6667 134.234 95.8802 134.234 97.3281C134.234 98.6406 133.87 99.8698 133.141 101.016C132.411 102.161 131.38 103.016 130.047 103.578C128.714 104.13 127.052 104.406 125.062 104.406C122.167 104.406 119.943 103.74 118.391 102.406C116.839 101.062 115.911 99.1094 115.609 96.5469ZM137.188 92.6875C137.188 90.3542 137.536 88.3958 138.234 86.8125C138.755 85.6458 139.464 84.599 140.359 83.6719C141.266 82.7448 142.255 82.0573 143.328 81.6094C144.755 81.0052 146.401 80.7031 148.266 80.7031C151.641 80.7031 154.339 81.75 156.359 83.8438C158.391 85.9375 159.406 88.849 159.406 92.5781C159.406 96.276 158.401 99.1719 156.391 101.266C154.38 103.349 151.693 104.391 148.328 104.391C144.922 104.391 142.214 103.354 140.203 101.281C138.193 99.1979 137.188 96.3333 137.188 92.6875ZM141.953 92.5312C141.953 95.125 142.552 97.0938 143.75 98.4375C144.948 99.7708 146.469 100.438 148.312 100.438C150.156 100.438 151.667 99.776 152.844 98.4531C154.031 97.1198 154.625 95.125 154.625 92.4688C154.625 89.8438 154.047 87.8854 152.891 86.5938C151.745 85.3021 150.219 84.6562 148.312 84.6562C146.406 84.6562 144.87 85.3125 143.703 86.625C142.536 87.9271 141.953 89.8958 141.953 92.5312ZM177.688 95.5781L182.172 97C181.484 99.5 180.339 101.359 178.734 102.578C177.141 103.786 175.115 104.391 172.656 104.391C169.615 104.391 167.115 103.354 165.156 101.281C163.198 99.1979 162.219 96.3542 162.219 92.75C162.219 88.9375 163.203 85.9792 165.172 83.875C167.141 81.7604 169.729 80.7031 172.938 80.7031C175.74 80.7031 178.016 81.5312 179.766 83.1875C180.807 84.1667 181.589 85.5729 182.109 87.4062L177.531 88.5C177.26 87.3125 176.693 86.375 175.828 85.6875C174.974 85 173.932 84.6562 172.703 84.6562C171.005 84.6562 169.625 85.2656 168.562 86.4844C167.51 87.7031 166.984 89.6771 166.984 92.4062C166.984 95.3021 167.505 97.3646 168.547 98.5938C169.589 99.8229 170.943 100.438 172.609 100.438C173.839 100.438 174.896 100.047 175.781 99.2656C176.667 98.4844 177.302 97.2552 177.688 95.5781ZM208.922 99.9219V104H193.531C193.698 102.458 194.198 101 195.031 99.625C195.865 98.2396 197.51 96.4062 199.969 94.125C201.948 92.2812 203.161 91.0312 203.609 90.375C204.214 89.4688 204.516 88.5729 204.516 87.6875C204.516 86.7083 204.25 85.9583 203.719 85.4375C203.198 84.9062 202.474 84.6406 201.547 84.6406C200.63 84.6406 199.901 84.9167 199.359 85.4688C198.818 86.0208 198.505 86.9375 198.422 88.2188L194.047 87.7812C194.307 85.3646 195.125 83.6302 196.5 82.5781C197.875 81.526 199.594 81 201.656 81C203.917 81 205.693 81.6094 206.984 82.8281C208.276 84.0469 208.922 85.5625 208.922 87.375C208.922 88.4062 208.734 89.3906 208.359 90.3281C207.995 91.2552 207.411 92.2292 206.609 93.25C206.078 93.9271 205.12 94.901 203.734 96.1719C202.349 97.4427 201.469 98.2865 201.094 98.7031C200.729 99.1198 200.432 99.526 200.203 99.9219H208.922Z" fill="#22C55E"/>
<path d="M135 184L155 204L195 164" stroke="#22C55E" stroke-width="10" stroke-linecap="round" stroke-linejoin="round"/>
<path d="M171 142.5H151C148.239 142.5 146 143.731 146 145.25V161.75C146 163.269 148.239 164.5 151 164.5H171C173.761 164.5 176 163.269 176 161.75V145.25C176 143.731 173.761 142.5 171 142.5Z" fill="#22C55E"/>
<path d="M151 156.5V136.5C151 126.5 171 126.5 171 136.5V156.5" stroke="#22C55E" stroke-width="6" stroke-linecap="round"/>
<path d="M161 311C243.843 311 311 243.843 311 161C311 78.1573 243.843 11 161 11C78.1573 11 11 78.1573 11 161C11 243.843 78.1573 311 161 311Z" stroke="#22C55E" stroke-opacity="0.15" stroke-width="6"/>
<path d="M161 321C249.366 321 321 249.366 321 161C321 72.6344 249.366 1 161 1C72.6344 1 1 72.6344 1 161C1 249.366 72.6344 321 161 321Z" stroke="#16A34A" stroke-opacity="0.3" stroke-width="2" stroke-dasharray="6 3"/>
<path d="M161 289C162.657 289 164 287.657 164 286C164 284.343 162.657 283 161 283C159.343 283 158 284.343 158 286C158 287.657 159.343 289 161 289Z" fill="#22C55E"/>
<path d="M161 286L181 306" stroke="#22C55E" stroke-width="1.5"/>
<path d="M181 309C182.657 309 184 307.657 184 306C184 304.343 182.657 303 181 303C179.343 303 178 304.343 178 306C178 307.657 179.343 309 181 309Z" fill="#22C55E"/>
<path d="M161 286L141 306" stroke="#22C55E" stroke-width="1.5"/>
<path d="M141 309C142.657 309 144 307.657 144 306C144 304.343 142.657 303 141 303C139.343 303 138 304.343 138 306C138 307.657 139.343 309 141 309Z" fill="#22C55E"/>
<path d="M61 165C63.2091 165 65 163.209 65 161C65 158.791 63.2091 157 61 157C58.7909 157 57 158.791 57 161C57 163.209 58.7909 165 61 165Z" fill="#22C55E" fill-opacity="0.6"/>
<path d="M261 165C263.209 165 265 163.209 265 161C265 158.791 263.209 157 261 157C258.791 157 257 158.791 257 161C257 163.209 258.791 165 261 165Z" fill="#22C55E" fill-opacity="0.6"/>
<path d="M161 65C163.209 65 165 63.2091 165 61C165 58.7909 163.209 57 161 57C158.791 57 157 58.7909 157 61C157 63.2091 158.791 65 161 65Z" fill="#22C55E" fill-opacity="0.6"/>
<path d="M161 265C163.209 265 165 263.209 165 261C165 258.791 163.209 257 161 257C158.791 257 157 258.791 157 261C157 263.209 158.791 265 161 265Z" fill="#22C55E" fill-opacity="0.6"/>
<path d="M118.803 338.736L121.605 339.625C121.176 341.188 120.46 342.35 119.457 343.111C118.461 343.867 117.195 344.244 115.658 344.244C113.757 344.244 112.195 343.596 110.971 342.301C109.747 340.999 109.135 339.221 109.135 336.969C109.135 334.586 109.75 332.737 110.98 331.422C112.211 330.1 113.829 329.439 115.834 329.439C117.585 329.439 119.008 329.957 120.102 330.992C120.753 331.604 121.241 332.483 121.566 333.629L118.705 334.312C118.536 333.57 118.181 332.984 117.641 332.555C117.107 332.125 116.456 331.91 115.688 331.91C114.626 331.91 113.764 332.291 113.1 333.053C112.442 333.814 112.113 335.048 112.113 336.754C112.113 338.564 112.439 339.853 113.09 340.621C113.741 341.389 114.587 341.773 115.629 341.773C116.397 341.773 117.058 341.529 117.611 341.041C118.165 340.553 118.562 339.785 118.803 338.736ZM124.096 344V329.684H134.711V332.105H126.986V335.279H134.174V337.691H126.986V341.588H134.984V344H124.096ZM137.445 344V329.684H143.529C145.059 329.684 146.169 329.814 146.859 330.074C147.556 330.328 148.113 330.784 148.529 331.441C148.946 332.099 149.154 332.851 149.154 333.697C149.154 334.771 148.839 335.66 148.207 336.363C147.576 337.06 146.632 337.499 145.375 337.682C146 338.046 146.514 338.447 146.918 338.883C147.328 339.319 147.878 340.094 148.568 341.207L150.316 344H146.859L144.77 340.885C144.027 339.771 143.52 339.072 143.246 338.785C142.973 338.492 142.683 338.294 142.377 338.189C142.071 338.079 141.586 338.023 140.922 338.023H140.336V344H137.445ZM140.336 335.738H142.475C143.861 335.738 144.727 335.68 145.072 335.562C145.417 335.445 145.688 335.243 145.883 334.957C146.078 334.671 146.176 334.312 146.176 333.883C146.176 333.401 146.046 333.014 145.785 332.721C145.531 332.421 145.17 332.232 144.701 332.154C144.467 332.122 143.764 332.105 142.592 332.105H140.336V335.738ZM155.111 344V332.105H150.863V329.684H162.24V332.105H158.002V344H155.111ZM164.027 344V329.684H166.918V344H164.027ZM169.701 344V329.684H179.516V332.105H172.592V335.494H178.568V337.916H172.592V344H169.701ZM181.82 344V329.684H184.711V344H181.82ZM187.475 344V329.684H198.09V332.105H190.365V335.279H197.553V337.691H190.365V341.588H198.363V344H187.475ZM200.805 329.684H206.088C207.279 329.684 208.188 329.775 208.812 329.957C209.652 330.204 210.372 330.644 210.971 331.275C211.57 331.907 212.025 332.682 212.338 333.6C212.65 334.511 212.807 335.637 212.807 336.979C212.807 338.157 212.66 339.173 212.367 340.025C212.009 341.067 211.498 341.91 210.834 342.555C210.333 343.043 209.656 343.424 208.803 343.697C208.165 343.899 207.312 344 206.244 344H200.805V329.684ZM203.695 332.105V341.588H205.854C206.661 341.588 207.243 341.542 207.602 341.451C208.07 341.334 208.458 341.135 208.764 340.855C209.076 340.576 209.33 340.117 209.525 339.479C209.721 338.834 209.818 337.958 209.818 336.852C209.818 335.745 209.721 334.895 209.525 334.303C209.33 333.71 209.057 333.248 208.705 332.916C208.354 332.584 207.908 332.359 207.367 332.242C206.964 332.151 206.173 332.105 204.994 332.105H203.695Z" fill="#22C55E"/>
</svg>
